<?xml version="1.0" encoding="utf-8"?>
<!-- Generator: Adobe Illustrator 16.0.4, SVG Export Plug-In . SVG Version: 6.00 Build 0)  -->
<!DOCTYPE svg PUBLIC "-//W3C//DTD SVG 1.1//EN" "http://www.w3.org/Graphics/SVG/1.1/DTD/svg11.dtd">
<svg version="1.1" id="Layer_1" xmlns="http://www.w3.org/2000/svg" xmlns:xlink="http://www.w3.org/1999/xlink" x="0px" y="0px"
	 width="200px" height="176px" viewBox="0 0 200 176" enable-background="new 0 0 200 176" xml:space="preserve">
<g>
	<g>
		<g>
			<g>
				<linearGradient id="SVGID_1_" gradientUnits="userSpaceOnUse" x1="68.3086" y1="12.9463" x2="123.0475" y2="163.3402">
					<stop  offset="0" style="stop-color:#C4CD4F"/>
					<stop  offset="0.3595" style="stop-color:#C4CB51"/>
					<stop  offset="0.5919" style="stop-color:#C4C656"/>
					<stop  offset="0.7882" style="stop-color:#C4BD5E"/>
					<stop  offset="0.9636" style="stop-color:#C4B167"/>
					<stop  offset="1" style="stop-color:#C5AD69"/>
				</linearGradient>
				<path fill="url(#SVGID_1_)" d="M188.12,85.585c-5.675,48.535-37.409,77.045-88.06,81.209
					C72.748,169.041,6.5,156.74,16.07,154.072c11.564-3.223,27.624-6.066,27.624-6.066c-16.528-9.266-27.057-31.631-31.695-62.42
					C2.896,25.164,57.875,12.913,100.061,9.58C172.611,3.846,193.825,36.775,188.12,85.585z"/>
			</g>
		</g>
	</g>
	<g>
		<linearGradient id="SVGID_2_" gradientUnits="userSpaceOnUse" x1="100.0005" y1="164.0962" x2="100.0005" y2="11.9644">
			<stop  offset="0" style="stop-color:#002535"/>
			<stop  offset="1" style="stop-color:#7FB8B0"/>
		</linearGradient>
		<path fill="url(#SVGID_2_)" d="M185.152,85.68c-5.482,46.675-36.148,74.093-85.095,78.095
			c-26.392,2.158-81.987-7.203-75.892-8.703c11.262-2.771,25.83-6.254,25.83-6.254c-21.901-13.205-30.551-33.529-35.033-63.138
			c-8.797-58.107,44.329-69.888,85.095-73.094C170.166,7.073,190.666,38.74,185.152,85.68z"/>
	</g>
	<path fill="#C5CE50" d="M100.077,35.147c0,0,20.257,0.566,36.258,6.771c-16.169-0.096-26.125,6.96-26.125,6.96L100.077,35.147z"/>
	<g>
		<g>
			<g>
				<linearGradient id="SVGID_3_" gradientUnits="userSpaceOnUse" x1="91.7939" y1="107.8452" x2="87.5977" y2="100.577">
					<stop  offset="0" style="stop-color:#C4CD4F"/>
					<stop  offset="1" style="stop-color:#C3CC4E"/>
				</linearGradient>
				<path fill="url(#SVGID_3_)" d="M94.361,105.289c-0.178,1.677-2.373,2.724-4.684,2.466c-2.516-0.097-4.607-2.317-4.603-4.264
					c-0.309-2.112,2.134-2.944,4.9-2.27C92.945,101.736,94.822,103.756,94.361,105.289z"/>
			</g>
			<g>
				<linearGradient id="SVGID_4_" gradientUnits="userSpaceOnUse" x1="99.54" y1="102.6538" x2="94.605" y2="94.106">
					<stop  offset="0" style="stop-color:#C4CD4F"/>
					<stop  offset="1" style="stop-color:#C3CC4E"/>
				</linearGradient>
				<path fill="url(#SVGID_4_)" d="M103.356,95.953c1.327,2.296,0.495,5.513-4.103,6.201c-4.088,0.628-8.759-0.218-8.974-2.544
					c-0.27-2.047,2.026-4.844,5.46-5.854C98.743,92.829,102.019,93.364,103.356,95.953z"/>
			</g>
			<g>
				<linearGradient id="SVGID_5_" gradientUnits="userSpaceOnUse" x1="84.1328" y1="110.3423" x2="81.124" y2="105.1309">
					<stop  offset="0" style="stop-color:#C4CD4F"/>
					<stop  offset="1" style="stop-color:#C3CC4E"/>
				</linearGradient>
				<path fill="url(#SVGID_5_)" d="M85.635,108.523c-0.158,1.613-1.743,2.097-3.339,1.534c-1.756-0.479-3.151-1.97-3.112-2.992
					c-0.15-1.153,1.608-1.913,3.526-1.805C84.821,105.258,85.991,107.047,85.635,108.523z"/>
			</g>
		</g>
		<g display="none">
			<linearGradient id="SVGID_6_" gradientUnits="userSpaceOnUse" x1="97.1709" y1="97.2671" x2="56.1665" y2="26.2454">
				<stop  offset="0" style="stop-color:#C4CD4F"/>
				<stop  offset="0.2877" style="stop-color:#C4CB4F"/>
				<stop  offset="0.5327" style="stop-color:#C4C450"/>
				<stop  offset="0.762" style="stop-color:#C4BA50"/>
				<stop  offset="0.9807" style="stop-color:#C4AA50"/>
				<stop  offset="1" style="stop-color:#C4A950"/>
			</linearGradient>
			<path display="inline" fill="url(#SVGID_6_)" d="M128.935,67.413c-1.866,15.726-26.316,30.79-53.369,32.084
				c-27.162,1.339-49.083-18.167-46.2-41.762c3.169-23.602,26.772-36.501,52.494-29.96C107.672,34.39,130.484,51.658,128.935,67.413
				z"/>
		</g>
		<g display="none">
			<g display="inline">
				<linearGradient id="SVGID_7_" gradientUnits="userSpaceOnUse" x1="129.1826" y1="43.6382" x2="123.4556" y2="33.7186">
					<stop  offset="0" style="stop-color:#C4CD4F"/>
					<stop  offset="0.2877" style="stop-color:#C4CB4F"/>
					<stop  offset="0.5327" style="stop-color:#C4C450"/>
					<stop  offset="0.762" style="stop-color:#C4BA50"/>
					<stop  offset="0.9807" style="stop-color:#C4AA50"/>
					<stop  offset="1" style="stop-color:#C4A950"/>
				</linearGradient>
				<path fill="url(#SVGID_7_)" d="M122.682,34.216c1.546-1.343,4.554-0.429,6.707,2.002c1.912,2.656,1.772,5.214,0.472,6.918
					c-1.517,1.381-3.814,1.53-6.011-0.962C121.927,39.496,121.349,35.872,122.682,34.216z"/>
			</g>
			<g display="inline">
				<linearGradient id="SVGID_8_" gradientUnits="userSpaceOnUse" x1="119.3418" y1="47.4644" x2="111.771" y2="34.3513">
					<stop  offset="0" style="stop-color:#C4CD4F"/>
					<stop  offset="0.2877" style="stop-color:#C4CB4F"/>
					<stop  offset="0.5327" style="stop-color:#C4C450"/>
					<stop  offset="0.762" style="stop-color:#C4BA50"/>
					<stop  offset="0.9807" style="stop-color:#C4AA50"/>
					<stop  offset="1" style="stop-color:#C4A950"/>
				</linearGradient>
				<path fill="url(#SVGID_8_)" d="M108.657,37.135c1.365-2.814,4.585-3.466,8.143-2.123c4.046,1.611,6.763,6.003,6.557,8.852
					c-0.219,3.184-5.237,3.247-9.852,1.626C108.325,43.576,107.379,39.643,108.657,37.135z"/>
			</g>
			<g display="inline">
				<linearGradient id="SVGID_9_" gradientUnits="userSpaceOnUse" x1="137.2168" y1="44.3188" x2="133.2349" y2="37.4219">
					<stop  offset="0" style="stop-color:#C4CD4F"/>
					<stop  offset="0.2877" style="stop-color:#C4CB4F"/>
					<stop  offset="0.5327" style="stop-color:#C4C450"/>
					<stop  offset="0.762" style="stop-color:#C4BA50"/>
					<stop  offset="0.9807" style="stop-color:#C4AA50"/>
					<stop  offset="1" style="stop-color:#C4A950"/>
				</linearGradient>
				<path fill="url(#SVGID_9_)" d="M132.408,37.955c1.177-0.975,3.341-1.372,4.771,0.489c1.202,1.972,1.04,4.733,0.034,5.856
					c-1.157,0.9-2.79,0.136-4.263-1.612C131.688,40.817,131.34,39.2,132.408,37.955z"/>
			</g>
		</g>
	</g>
	<g>
		<path fill="#FFFFFF" d="M53.183,105.041c4.172-3.609,10.309-4.798,14.596,0.25c1.438,1.193,7.068,11.326-0.115,16.986
			c-4.304,3.143-10.811-0.347-14.959-4.775C48.519,112.999,48.947,108.732,53.183,105.041z"/>
	</g>
	<g>
		<path fill="#FFFFFF" d="M144.354,73.623c-8.333-3.918-13.403-11.539-10.503-19.036c2.995-7.452,11.616-14.49,19.57-13.801
			c8.033,0.63,13.599,11.308,10.986,21.994C161.717,73.521,152.596,77.5,144.354,73.623z"/>
	</g>
	<g>
		<defs>
			<path id="SVGID_10_" d="M185.152,85.68c-5.482,46.675-36.148,74.093-85.095,78.095c-26.392,2.158-81.987-7.203-75.892-8.703
				c11.262-2.771,25.83-6.254,25.83-6.254c-21.901-13.205-30.551-33.529-35.033-63.138c-8.797-58.107,44.329-69.888,85.095-73.094
				C170.166,7.073,190.666,38.74,185.152,85.68z"/>
		</defs>
		<clipPath id="SVGID_11_">
			<use xlink:href="#SVGID_10_"  overflow="visible"/>
		</clipPath>
		<path id="White_3_" clip-path="url(#SVGID_11_)" fill="#FFFFFF" d="M161.937,21.455c49.229,29.519-29.004,143.836-29.004,143.836
			s-20.963,8.053-35.142-6.094c-2.092-2.088-8.749-5.566-10.375-8.75C109.541,153.072,199.166,69.073,161.937,21.455z"/>
		<path id="White_2_" clip-path="url(#SVGID_11_)" fill="#FFFFFF" d="M15.019,99.117c17.147,10.455,49.772,43.705,52.397,65.58
			c0.199,1.656,3.242,0.398,3.665,2.121c0.313-3.648-0.833-12.562,11.224-11.758c12.057,0.801,26.399,12.449,26.399,12.449
			s-59.531-52.262-93.037-70.438C13.649,95.978,15.872,93.412,15.019,99.117z"/>
	</g>
	<linearGradient id="SVGID_12_" gradientUnits="userSpaceOnUse" x1="110.6836" y1="91.1782" x2="54.5778" y2="24.3139">
		<stop  offset="0" style="stop-color:#C4CD4F"/>
		<stop  offset="0.4936" style="stop-color:#C4BC5F"/>
		<stop  offset="1" style="stop-color:#C4AD69"/>
	</linearGradient>
	<path fill="url(#SVGID_12_)" d="M28.666,60.573c1.167-21.666,20.5-34.167,37.333-34.5s36,9.165,36,9.165s20.666,1.169,34.335,6.681
		c-9.835-0.846-19.503,3.321-19.503,3.321s6.789,5.957,9.491,11.836c2.509,5.831,5.509,12.497-2.488,22.59
		C118.166,86.407,100,97.74,79.915,99.328C62.833,100.24,55.761,96.712,49,93.24C42.833,90.073,28.666,78.907,28.666,60.573z"/>
	<g>
		<defs>
			<path id="SVGID_13_" d="M188.12,85.585c-5.675,48.535-37.409,77.045-88.06,81.209C72.748,169.041,6.5,156.74,16.07,154.072
				c11.564-3.223,27.624-6.066,27.624-6.066c-16.528-9.266-27.057-31.631-31.695-62.42C2.896,25.164,57.875,12.913,100.061,9.58
				C172.611,3.846,193.825,36.775,188.12,85.585z"/>
		</defs>
		<clipPath id="SVGID_14_">
			<use xlink:href="#SVGID_13_"  overflow="visible"/>
		</clipPath>
		
			<linearGradient id="SVGID_15_" gradientUnits="userSpaceOnUse" x1="83.0488" y1="28.3208" x2="96.3219" y2="100.7345" gradientTransform="matrix(1.0593 -0.2077 0.3143 1.603 -18.8891 -25.423)">
			<stop  offset="0.1112" style="stop-color:#FFFFFF;stop-opacity:0.5"/>
			<stop  offset="0.888" style="stop-color:#FFFFFF;stop-opacity:0.1"/>
		</linearGradient>
		<path clip-path="url(#SVGID_14_)" fill="url(#SVGID_15_)" d="M182.415,40.691c7.736,25.308-24.583,64.512-70.583,71.664
			C64.079,119.779,12.27,101.492,9.987,75.127C7.5,46.407,23.833,15.407,85.481,9.889C131.849,5.74,171.833,6.073,182.415,40.691z"
			/>
	</g>
	<g>
		<path fill="#594429" d="M43.003,76.296l-5.688-23.968h5.797l1.812,9.851c0.535,2.882,1.031,5.975,1.422,8.393h0.072
			c0.391-2.596,0.959-5.478,1.564-8.464l2.025-9.779h5.76l1.922,10.1c0.533,2.809,0.922,5.368,1.277,8.035h0.072
			c0.355-2.667,0.891-5.474,1.387-8.355l1.957-9.779h5.51l-6.188,23.968h-5.867l-2.025-10.312c-0.461-2.42-0.854-4.66-1.137-7.396
			h-0.072c-0.428,2.702-0.816,4.977-1.387,7.396l-2.275,10.312H43.003z"/>
		<path fill="#594429" d="M76.144,52.329v23.968h-5.404V52.329H76.144z"/>
		<path fill="#594429" d="M81.017,70.713c1.422,0.748,3.697,1.494,6.008,1.494c2.49,0,3.805-1.031,3.805-2.596
			c0-1.493-1.137-2.348-4.018-3.343c-3.98-1.422-6.611-3.628-6.611-7.111c0-4.091,3.445-7.185,9.066-7.185
			c2.738,0,4.691,0.533,6.113,1.21l-1.207,4.338c-0.926-0.464-2.668-1.138-4.979-1.138c-2.348,0-3.486,1.103-3.486,2.311
			c0,1.53,1.316,2.204,4.447,3.379c4.23,1.564,6.188,3.77,6.188,7.148c0,4.018-3.059,7.432-9.637,7.432
			c-2.738,0-5.439-0.748-6.791-1.492L81.017,70.713z"/>
		<path fill="#594429" d="M114.3,66.162h-8.82v5.69h9.85v4.444h-15.252V52.329h14.754v4.445h-9.352v4.979h8.82V66.162z"/>
	</g>
	
		<linearGradient id="SVGID_16_" gradientUnits="userSpaceOnUse" x1="101.6768" y1="49.9536" x2="106.4946" y2="84.0672" gradientTransform="matrix(0.7162 -0.2441 0.401 1.1766 -34.7272 -5.4135)">
		<stop  offset="0.1112" style="stop-color:#FFFFFF;stop-opacity:0.9"/>
		<stop  offset="0.1709" style="stop-color:#FFFFFF;stop-opacity:0.8309"/>
		<stop  offset="0.888" style="stop-color:#FFFFFF;stop-opacity:0"/>
	</linearGradient>
	<path fill="url(#SVGID_16_)" d="M101.04,41.085c10.959,14.394-8.19,9.334-24.896,14.242c-11.127,4.877-27.978,23.745-40.311,8.985
		c-7.167-11.984,1.749-28.189,23.216-33.732C75.528,26.715,90.523,30.603,101.04,41.085z"/>
</g>
</svg>
