<?xml version="1.0" encoding="utf-8"?>
<!-- Generator: Adobe Illustrator 18.0.0, SVG Export Plug-In . SVG Version: 6.00 Build 0)  -->
<!DOCTYPE svg PUBLIC "-//W3C//DTD SVG 1.1//EN" "http://www.w3.org/Graphics/SVG/1.1/DTD/svg11.dtd">
<svg version="1.1" id="Layer_1" xmlns="http://www.w3.org/2000/svg" xmlns:xlink="http://www.w3.org/1999/xlink" x="0px" y="0px"
	 viewBox="0 0 200 175.999" enable-background="new 0 0 200 175.999" xml:space="preserve">
<path fill="#FFFFFF" d="M100.061,9.139c-42.422,3.352-97.71,15.672-88.556,76.433c4.665,30.962,15.252,53.453,31.873,62.771
	c0,0-16.15,2.86-27.779,6.1c-9.625,2.683,56.996,15.053,84.462,12.794c50.935-4.187,82.848-32.857,88.554-81.665
	C194.352,36.487,173.019,3.373,100.061,9.139z M185.152,85.68c-5.482,46.675-36.148,74.093-85.095,78.095
	c-26.392,2.158-81.987-7.203-75.892-8.703c11.262-2.771,25.83-6.254,25.83-6.254c-21.901-13.205-30.551-33.529-35.033-63.138
	c-8.797-58.107,44.329-69.888,85.095-73.094C170.166,7.073,190.666,38.74,185.152,85.68z"/>
<g>
	<g>
		<g>
			<g>
				<path fill="none" d="M190.274,85.527c-5.814,49.722-38.324,78.928-90.212,83.194c-27.981,2.301-95.848-10.301-86.044-13.033
					c11.846-3.302,28.298-6.217,28.298-6.217C25.385,139.979,14.6,117.07,9.848,85.527C0.522,23.628,56.845,11.079,100.062,7.663
					C174.385,1.79,196.119,35.523,190.274,85.527z"/>
			</g>
		</g>
	</g>
	<g display="none">
		<path display="inline" fill="#1B8CA8" d="M185.152,85.68c-5.482,46.675-36.148,74.093-85.095,78.095
			c-26.392,2.158-81.987-7.203-75.892-8.703c11.262-2.771,25.83-6.254,25.83-6.254c-21.901-13.205-30.551-33.529-35.033-63.138
			c-8.797-58.107,44.329-69.888,85.095-73.094C170.166,7.073,190.666,38.74,185.152,85.68z"/>
	</g>
	<path display="none" fill="#C5CE50" d="M100.077,35.147c0,0,20.257,0.566,36.258,6.771c-16.169-0.096-26.125,6.96-26.125,6.96
		L100.077,35.147z"/>
	<g>
		<g>
			<g>
				<path fill="#FFFFFF" d="M94.361,105.289c-0.178,1.677-2.373,2.724-4.684,2.466c-2.516-0.097-4.607-2.317-4.603-4.264
					c-0.309-2.112,2.134-2.944,4.9-2.27C92.945,101.736,94.822,103.756,94.361,105.289z"/>
			</g>
			<g>
				<path fill="#FFFFFF" d="M103.356,95.953c1.327,2.296,0.495,5.513-4.103,6.201c-4.088,0.628-8.759-0.218-8.974-2.544
					c-0.27-2.047,2.026-4.844,5.46-5.854C98.743,92.829,102.019,93.364,103.356,95.953z"/>
			</g>
			<g>
				<path fill="#FFFFFF" d="M85.635,108.523c-0.158,1.613-1.743,2.097-3.339,1.534c-1.756-0.479-3.151-1.97-3.112-2.992
					c-0.15-1.153,1.608-1.913,3.526-1.805C84.821,105.258,85.991,107.047,85.635,108.523z"/>
			</g>
		</g>
		<g display="none">
			<path display="inline" fill="#FFFFFF" d="M128.935,67.413c-1.866,15.726-26.316,30.79-53.369,32.084
				c-27.162,1.339-49.084-18.167-46.2-41.762c3.169-23.602,26.772-36.502,52.494-29.96C107.672,34.39,130.484,51.658,128.935,67.413
				z"/>
		</g>
		<g display="none">
			<g display="inline">
				<path fill="#FFFFFF" d="M122.682,34.216c1.546-1.343,4.554-0.429,6.707,2.002c1.912,2.656,1.772,5.214,0.472,6.918
					c-1.517,1.381-3.814,1.53-6.011-0.962C121.927,39.496,121.349,35.872,122.682,34.216z"/>
			</g>
			<g display="inline">
				<path fill="#FFFFFF" d="M108.657,37.135c1.365-2.814,4.585-3.466,8.143-2.123c4.046,1.611,6.763,6.003,6.557,8.852
					c-0.219,3.184-5.237,3.247-9.852,1.626C108.325,43.576,107.379,39.643,108.657,37.135z"/>
			</g>
			<g display="inline">
				<path fill="#FFFFFF" d="M132.408,37.955c1.177-0.975,3.341-1.372,4.77,0.489c1.202,1.972,1.04,4.733,0.034,5.856
					c-1.157,0.9-2.79,0.136-4.263-1.612C131.688,40.817,131.34,39.2,132.408,37.955z"/>
			</g>
		</g>
	</g>
	<g>
		<path fill="#FFFFFF" d="M53.183,105.04c4.172-3.609,10.309-4.798,14.596,0.25c1.438,1.193,7.068,11.326-0.115,16.986
			c-4.304,3.143-10.811-0.347-14.959-4.775C48.519,112.998,48.947,108.732,53.183,105.04z"/>
	</g>
	<g>
		<path fill="#FFFFFF" d="M144.354,73.623c-8.333-3.918-13.403-11.539-10.503-19.036c2.995-7.452,11.616-14.49,19.57-13.801
			c8.033,0.63,13.599,11.308,10.986,21.994C161.717,73.521,152.596,77.499,144.354,73.623z"/>
	</g>
	<g>
		<defs>
			<path id="SVGID_1_" d="M185.152,85.68c-5.482,46.675-36.148,74.093-85.095,78.095c-26.392,2.158-81.987-7.203-75.892-8.703
				c11.262-2.771,25.83-6.254,25.83-6.254c-21.901-13.205-30.551-33.529-35.033-63.138c-8.797-58.107,44.329-69.888,85.095-73.094
				C170.166,7.073,190.666,38.74,185.152,85.68z"/>
		</defs>
		<clipPath id="SVGID_2_">
			<use xlink:href="#SVGID_1_"  overflow="visible"/>
		</clipPath>
		<path id="White_3_" clip-path="url(#SVGID_2_)" fill="#FFFFFF" d="M161.936,21.455c49.23,29.518-29.004,143.836-29.004,143.836
			s-20.963,8.053-35.142-6.094c-2.092-2.088-8.749-5.566-10.375-8.75C109.541,153.072,199.166,69.073,161.936,21.455z"/>
		<path id="White_2_" clip-path="url(#SVGID_2_)" fill="#FFFFFF" d="M15.019,99.117c17.147,10.455,49.772,43.705,52.397,65.58
			c0.199,1.656,3.242,0.398,3.665,2.121c0.313-3.648-0.833-12.562,11.224-11.758c12.057,0.801,26.399,12.449,26.399,12.449
			s-59.531-52.262-93.037-70.437C13.649,95.978,15.872,93.412,15.019,99.117z"/>
	</g>
	<g>
	</g>
	<path fill="#FFFFFF" d="M136.335,41.918C122.666,36.407,102,35.238,102,35.238s-19.167-9.498-36-9.165
		c-16.833,0.333-36.167,12.834-37.333,34.5c0,18.334,14.167,29.5,20.333,32.667c6.762,3.473,13.833,7,30.915,6.088
		c20.085-1.588,38.251-12.921,43.92-19.662c7.997-10.093,4.997-16.759,2.488-22.59c-2.702-5.879-9.491-11.836-9.491-11.836
		S126.5,41.073,136.335,41.918z M61.706,76.296h-5.867l-2.025-10.312c-0.461-2.42-0.853-4.66-1.137-7.396h-0.072
		c-0.428,2.702-0.816,4.977-1.387,7.396l-2.275,10.312h-5.939l-5.688-23.968h5.797l1.812,9.851c0.535,2.882,1.031,5.975,1.422,8.393
		h0.072c0.391-2.596,0.959-5.478,1.565-8.464l2.025-9.779h5.76l1.922,10.1c0.533,2.809,0.922,5.368,1.277,8.035h0.072
		c0.356-2.667,0.891-5.474,1.387-8.355l1.957-9.779h5.51L61.706,76.296z M76.144,76.296h-5.404V52.329h5.404V76.296z M86.706,76.653
		c-2.738,0-5.44-0.748-6.791-1.492l1.102-4.447c1.422,0.748,3.697,1.494,6.008,1.494c2.49,0,3.805-1.031,3.805-2.596
		c0-1.493-1.137-2.348-4.018-3.343c-3.98-1.422-6.611-3.628-6.611-7.111c0-4.091,3.445-7.185,9.066-7.185
		c2.738,0,4.691,0.533,6.113,1.21l-1.207,4.338c-0.926-0.464-2.668-1.138-4.979-1.138c-2.348,0-3.486,1.102-3.486,2.311
		c0,1.53,1.316,2.204,4.447,3.379c4.23,1.564,6.188,3.77,6.188,7.148C96.343,73.239,93.284,76.653,86.706,76.653z M115.329,76.296
		h-15.252V52.329h14.754v4.445h-9.352v4.979h8.82v4.408h-8.82v5.69h9.85V76.296z"/>
</g>
</svg>
