<?xml version="1.0" standalone="no"?>
<!DOCTYPE svg PUBLIC "-//W3C//DTD SVG 1.1//EN" "http://www.w3.org/Graphics/SVG/1.1/DTD/svg11.dtd">
<svg xmlns="http://www.w3.org/2000/svg">
<defs >
<font id="Hind" horiz-adv-x="525" ><font-face
    font-family="Hind Regular"
    units-per-em="1000"
    panose-1="2 0 0 0 0 0 0 0 0 0"
    ascent="1055"
    descent="-546"
    alphabetic="0" />
<glyph unicode=" " glyph-name="space" horiz-adv-x="244" />
<glyph unicode="!" glyph-name="exclam" horiz-adv-x="251" d="M98 -8T82 9T65 50T82 92T124 110T166 93T184 51T167 9T124 -8ZM87 204V674H164V204H87Z" />
<glyph unicode="&quot;" glyph-name="quotedbl" horiz-adv-x="295" d="M181 444V681H251V444H181ZM44 444V681H115V444H44Z" />
<glyph unicode="#" glyph-name="numbersign" horiz-adv-x="710" d="M657 439H541L498 233H605V170H485L449 0H376L412 170H233L197 0H126L162 170H53V233H175L218 439H107V503H232L268 674H340L304 503H483L519 674H590L554 503H657V439ZM425 233L469 439H290L246
233H425Z" />
<glyph unicode="$" glyph-name="dollar" horiz-adv-x="505" d="M417 564Q356 604 284 604T175 576T139 501Q139 476 148 458T184 422Q219 399 251 385T305 361T350 338T401 302Q454 259 454 178T402 49T264 -6V-109H195V-5Q113 3 56 36V123Q129 68 234 68Q297
68 333 96T370 177Q370 201 361 219T326 255T286 279T245 298T197 318T153 341T104 377Q53 421 53 499T107 625T246 679V783H315V677Q374 670 417 649V564Z" />
<glyph unicode="%" glyph-name="percent" horiz-adv-x="847" d="M550 188T550 151T576 88T640 62T703 88T730 151T704 214T641 241T577 215ZM118 552T118 515T144 452T207 425T270 451T297 515T271 578T207 604T144 578ZM142 356T96 402T49 514T95 626T207 673T319
627T366 515T319 403T207 356ZM574 -7T528 39T482 151T528 263T639 310T751 263T798 151T752 40T640 -7ZM206 -1L563 665H640L281 -1H206Z" />
<glyph unicode="&amp;" glyph-name="ampersand" horiz-adv-x="703" d="M526 63Q445 -8 325 -8T135 43T65 176Q65 289 223 349Q176 400 154 439T132 523Q132 598 183 644T319 690T456 641T508 517Q508 460 472 414T349 328L518 170Q542 214 546 268H622Q616 182
574 118L701 0H594L526 63ZM427 559T399 588T322 618T244 593T214 529T232 459T299 378Q366 409 396 441T427 516ZM471 115L273 299Q209 275 178 246T147 172T194 96T325 65T471 115Z" />
<glyph unicode="&apos;" glyph-name="quotesingle" horiz-adv-x="159" d="M44 444V681H115V444H44Z" />
<glyph unicode="(" glyph-name="parenleft" horiz-adv-x="310" d="M72 261Q72 383 113 499T225 707H312Q155 495 155 256T320 -196H232Q72 8 72 261Z" />
<glyph unicode=")" glyph-name="parenright" horiz-adv-x="310" d="M239 261Q239 9 78 -196H-10Q155 17 155 257T-2 707H86Q157 615 198 499T239 261Z" />
<glyph unicode="*" glyph-name="asterisk" horiz-adv-x="408" d="M250 488H243Q262 478 275 458L331 380L280 342L223 420Q209 440 204 459Q199 439 185 419L128 342L76 379L133 458Q149 479 164 487H156Q137 487 120 493L29 523L48 585L141 555Q162 548 180 532Q171
552 171 578V674H235V578Q235 552 227 534Q242 549 266 556L358 585L378 524L286 494Q270 488 250 488Z" />
<glyph unicode="+" glyph-name="plus" horiz-adv-x="553" d="M497 376V304H310V115H236V304H57V376H236V565H310V376H497Z" />
<glyph unicode="," glyph-name="comma" horiz-adv-x="225" d="M-8 -123L85 101H190L61 -123H-8Z" />
<glyph unicode="-" glyph-name="hyphen" horiz-adv-x="348" d="M57 234V303H291V234H57Z" />
<glyph unicode="." glyph-name="period" horiz-adv-x="166" d="M24 26T24 51T41 93T83 110T125 93T142 51T125 9T83 -8T41 9Z" />
<glyph unicode="/" glyph-name="slash" horiz-adv-x="403" d="M-9 -102L355 707H436L71 -102H-9Z" />
<glyph unicode="0" glyph-name="zero" horiz-adv-x="544" d="M124 452T124 329T166 137T273 67T379 135T420 328T378 520T273 587T167 520ZM167 -8T105 84T43 329T105 572T272 662T438 573T501 330T441 84T274 -8Z" />
<glyph unicode="1" glyph-name="one" horiz-adv-x="323" d="M247 654V0H169V568L18 475V560L173 654H247Z" />
<glyph unicode="2" glyph-name="two" horiz-adv-x="494" d="M451 69V0H38V67Q348 301 348 457Q348 519 312 552T215 586Q136 586 59 527V606Q130 661 220 661T370 610T430 465Q430 288 147 69H451Z" />
<glyph unicode="3" glyph-name="three" horiz-adv-x="466" d="M58 624Q116 661 202 661T342 612T396 489Q396 436 370 394T291 331Q348 318 381 279T415 180Q415 100 359 47T205 -6T38 27V106Q112 67 187 67T298 100T334 186T295 267T181 296H139V365H181Q237
365 275 396T314 481T281 561T185 588T58 547V624Z" />
<glyph unicode="4" glyph-name="four" horiz-adv-x="540" d="M516 228V159H419V0H341V159H42V228L291 654H419V228H516ZM341 228V607L122 228H341Z" />
<glyph unicode="5" glyph-name="five" horiz-adv-x="509" d="M169 585V389Q214 399 247 399Q347 399 405 346T464 200T401 50T233 -8T59 26V104Q123 66 214 66Q382 66 382 207Q382 264 343 295T237 327T91 292V654H419V585H169Z" />
<glyph unicode="6" glyph-name="six" horiz-adv-x="526" d="M353 600Q259 600 203 530T134 352Q200 421 293 421T438 364T490 210T434 51T284 -11Q172 -11 112 74T52 296Q52 459 132 566T352 673Q397 673 444 658V581Q401 600 353 600ZM135 171T176 117T279 62T374
104T408 211T375 313T287 350Q197 350 131 277Q135 171 176 117Z" />
<glyph unicode="7" glyph-name="seven" horiz-adv-x="451" d="M12 654H439V585L168 0H84L355 585H12V654Z" />
<glyph unicode="8" glyph-name="eight" horiz-adv-x="536" d="M485 170Q485 89 422 41T266 -8T112 39T51 165Q51 224 82 265T169 326Q62 367 62 477Q62 564 122 612T265 661T409 614T469 476Q469 425 441 387T364 328Q485 291 485 170ZM389 527T357 559T267 591T175
558T142 473T177 392T267 363T355 393T389 475ZM131 123T166 93T266 62T368 95T404 176T369 258T266 290T165 255T131 172Z" />
<glyph unicode="9" glyph-name="nine" horiz-adv-x="504" d="M174 66Q355 66 380 293Q330 234 232 234Q152 234 94 292T36 445T91 601T241 662Q351 662 406 580T462 373Q462 195 391 94T177 -8Q119 -8 64 11V89Q116 66 174 66ZM384 373Q384 468 351 528T243 589Q186
589 152 551T118 446T154 341T252 304Q334 304 384 368V373Z" />
<glyph unicode=":" glyph-name="colon" horiz-adv-x="235" d="M59 32T59 57T75 99T117 116T159 99T176 57T159 16T117 -1T76 15ZM92 322T76 338T59 379T75 421T117 438T159 421T176 380T159 339T117 322Z" />
<glyph unicode=";" glyph-name="semicolon" horiz-adv-x="225" d="M-8 -123L85 101H190L61 -123H-8ZM103 321T87 337T70 378T86 420T128 437T170 420T187 379T170 338T128 321Z" />
<glyph unicode="&lt;" glyph-name="less" horiz-adv-x="527" d="M57 303V379L478 567V486Q214 377 140 342Q208 308 478 196V114L57 303Z" />
<glyph unicode="=" glyph-name="equal" horiz-adv-x="553" d="M57 205V274H497V205H57ZM57 407V475H497V407H57Z" />
<glyph unicode="&gt;" glyph-name="greater" horiz-adv-x="527" d="M470 379V303L49 114V196Q311 304 386 342Q314 377 49 486V567L470 379Z" />
<glyph unicode="?" glyph-name="question" horiz-adv-x="452" d="M152 -8T136 9T119 50T136 92T177 110T220 93T238 51T221 9T178 -8ZM110 682T205 682T357 634T414 500T355 367T218 313L217 204H141L140 370Q232 370 282 401T332 490T299 579T195 611T45 561V641Q110
682 205 682Z" />
<glyph unicode="@" glyph-name="at" horiz-adv-x="905" d="M568 351Q568 362 572 410H638L623 272Q619 219 619 186Q619 85 685 85Q729 85 758 133T788 259Q788 395 704 470T482 546T241 446T136 200T217 -23T407 -100T594 -57L590 -134Q523 -168 414 -168Q251
-168 156 -66T60 196Q60 375 186 494T491 613Q645 613 751 517T858 264Q858 149 804 85T681 21Q589 21 564 107Q511 18 416 18Q342 18 300 70T257 207T312 353T449 415T568 351ZM332 146T359 115T427 83T504 111T556 189Q558 225 560 244Q544 349 452 349Q400 349
366 305T332 204Z" />
<glyph unicode="A" glyph-name="A" horiz-adv-x="648" d="M526 0L467 177H182L122 0H35L270 674H382L613 0H526ZM205 246H444L326 609Q312 558 205 246Z" />
<glyph unicode="B" glyph-name="B" horiz-adv-x="571" d="M77 674H280Q384 674 446 626T509 497Q509 439 477 397T393 343Q449 334 488 293T528 175T475 50T323 0H77V674ZM158 605V375H266Q347 375 386 409T425 493T389 574T280 605H158ZM158 69H311Q375 69 409
98T444 185T406 274T296 306H158V69Z" />
<glyph unicode="C" glyph-name="C" horiz-adv-x="602" d="M387 607Q278 607 206 533T133 338T205 142T396 68Q492 68 560 119V34Q498 -8 390 -8Q238 -8 143 85T48 335T144 587T387 683Q492 683 558 647V564Q514 587 479 597T387 607Z" />
<glyph unicode="D" glyph-name="D" horiz-adv-x="661" d="M77 674H277Q426 674 521 582T617 343T529 98T281 0H77V674ZM159 71H280Q405 71 469 148T533 339T462 527T276 602H159V71Z" />
<glyph unicode="E" glyph-name="E" horiz-adv-x="501" d="M158 71H453V0H77V674H448V603H158V372H414V301H158V71Z" />
<glyph unicode="F" glyph-name="F" horiz-adv-x="489" d="M447 603H158V364H412V293H158V0H77V674H447V603Z" />
<glyph unicode="G" glyph-name="G" horiz-adv-x="670" d="M603 378V56H602L603 53Q522 -8 394 -8Q238 -8 143 84T48 334T142 588T381 686Q500 686 578 640V553Q496 607 386 607T204 534T133 337T203 142T396 70Q464 70 522 97V307H374V378H603Z" />
<glyph unicode="H" glyph-name="H" horiz-adv-x="643" d="M485 674H566V0H485V305H158V0H77V674H158V378H485V674Z" />
<glyph unicode="I" glyph-name="I" horiz-adv-x="247" d="M83 0V674H164V0H83Z" />
<glyph unicode="J" glyph-name="J" horiz-adv-x="358" d="M114 74Q201 74 201 166V674H282V173Q282 0 125 0Q69 0 30 22V100Q70 74 114 74Z" />
<glyph unicode="K" glyph-name="K" horiz-adv-x="573" d="M274 333L545 0H440L174 333L431 674H531L274 333ZM77 0V674H158V0H77Z" />
<glyph unicode="L" glyph-name="L" horiz-adv-x="477" d="M158 73H445V0H77V674H158V73Z" />
<glyph unicode="M" glyph-name="M" horiz-adv-x="857" d="M70 0L119 674H222L311 428L419 114Q487 307 626 674H729L788 0H707L660 565Q595 383 457 15H380L189 559Q189 532 151 0H70Z" />
<glyph unicode="N" glyph-name="N" horiz-adv-x="673" d="M77 0V674H179L348 390L519 98Q515 195 515 389V674H596V0H494Q214 467 153 577Q158 473 158 284V0H77Z" />
<glyph unicode="O" glyph-name="O" horiz-adv-x="700" d="M248 611T191 539T133 341T192 142T353 69T510 141T567 340T510 539T351 611ZM214 -8T131 87T48 340T129 593T351 687T572 594T653 341T572 87T352 -8Z" />
<glyph unicode="P" glyph-name="P" horiz-adv-x="545" d="M77 674H254Q371 674 438 614T506 460T439 308T262 248H158V0H77V674ZM158 317H267Q340 318 382 358T424 460T381 563T259 605H158V317Z" />
<glyph unicode="Q" glyph-name="Q" horiz-adv-x="709" d="M351 -8Q214 -8 131 87T48 340T129 593T351 687T572 594T653 340Q653 224 609 141T483 19L683 -105L595 -142L395 -5Q374 -8 351 -8ZM248 611T191 539T133 341T192 142T353 69T510 141T567 340T510 539T351 611Z" />
<glyph unicode="R" glyph-name="R" horiz-adv-x="548" d="M263 266H158V0H77V674H246Q363 674 423 619T484 467Q482 397 447 348T348 279L525 0H428L263 266ZM158 604V335H260Q329 335 365 372T402 469Q402 604 251 604H158Z" />
<glyph unicode="S" glyph-name="S" horiz-adv-x="524" d="M430 564Q369 604 296 604T187 576T151 501Q151 452 194 422Q226 401 274 380T340 350T386 323T430 286Q467 241 467 179Q467 90 406 42T244 -7T69 36V123Q142 68 247 68Q310 68 346 96T382 177Q382 221
346 248Q306 278 253 300T178 335T124 370Q66 416 66 499T127 631T279 680T430 649V564Z" />
<glyph unicode="T" glyph-name="T" horiz-adv-x="482" d="M463 674V603H281V0H200V603H18V674H463Z" />
<glyph unicode="U" glyph-name="U" horiz-adv-x="645" d="M488 254V674H569V256Q569 126 504 59T322 -8T141 57T76 248V674H157V249Q157 156 201 112T321 68Q488 68 488 254Z" />
<glyph unicode="V" glyph-name="V" horiz-adv-x="637" d="M601 674L366 0H264L36 674H123L211 407L316 73Q367 239 514 674H601Z" />
<glyph unicode="W" glyph-name="W" horiz-adv-x="938" d="M432 664H513L587 424L689 82Q727 263 820 674H902L744 0H640L474 550Q445 439 315 0H212L36 674H121L184 424L267 85Q324 295 432 664Z" />
<glyph unicode="X" glyph-name="X" horiz-adv-x="613" d="M303 271L135 0H39L256 340L51 674H146L301 413L456 674H552L348 340L574 0H479L303 271Z" />
<glyph unicode="Y" glyph-name="Y" horiz-adv-x="593" d="M336 0H255V250L26 674H120Q277 370 295 324Q300 339 473 674H567L336 251V0Z" />
<glyph unicode="Z" glyph-name="Z" horiz-adv-x="569" d="M502 674V608L146 69H517V0H52V67L408 605H57V674H502Z" />
<glyph unicode="[" glyph-name="bracketleft" horiz-adv-x="310" d="M307 637H155V-111H307V-183H77V707H307V637Z" />
<glyph unicode="\" glyph-name="backslash" horiz-adv-x="402" d="M48 707L412 -103H332L-33 707H48Z" />
<glyph unicode="]" glyph-name="bracketright" horiz-adv-x="310" d="M233 707V-183H3V-111H155V637H3V707H233Z" />
<glyph unicode="^" glyph-name="asciicircum" horiz-adv-x="461" d="M416 332H337L232 540L124 332H45L187 594H278L416 332Z" />
<glyph unicode="_" glyph-name="underscore" horiz-adv-x="561" d="M28 -100V-31H533V-100H28Z" />
<glyph unicode="`" glyph-name="grave" horiz-adv-x="421" d="M210 798L308 642H239L115 798H210Z" />
<glyph unicode="a" glyph-name="a" horiz-adv-x="492" d="M234 515Q425 515 425 321V0H347V60Q308 -5 205 -5Q134 -5 91 37T47 147T102 256T254 297H346V323Q346 383 319 413T220 444T84 401V480Q141 515 234 515ZM346 234H258Q194 234 162 209T130 146T155 85T231
61T314 91T346 169V234Z" />
<glyph unicode="b" glyph-name="b" horiz-adv-x="570" d="M155 707V431Q210 515 307 515T466 442T527 255T470 67T311 -8T155 75V0H76V707H155ZM155 156T198 110T303 64T405 115T445 254T404 392T304 443T200 398T155 255Z" />
<glyph unicode="c" glyph-name="c" horiz-adv-x="471" d="M314 60Q372 60 422 93V18Q374 -11 304 -11Q184 -11 114 65T43 251T113 438T306 516Q371 516 422 488V413Q376 444 314 444Q228 444 177 389T125 251T175 115T314 60Z" />
<glyph unicode="d" glyph-name="d" horiz-adv-x="567" d="M415 707H494V0H415V75Q361 -8 260 -8T101 67T43 255T104 441T262 515T415 430V707ZM125 166T165 115T266 64T371 110T415 254T370 398T267 443T167 393T125 254Z" />
<glyph unicode="e" glyph-name="e" horiz-adv-x="522" d="M299 -5Q184 -5 114 65T43 254T106 443T266 513T419 452T475 279Q475 247 470 220H124Q133 145 181 105T310 65T443 100V26Q384 -5 299 -5ZM396 286V306Q396 369 362 406T270 444T171 403T124 286H396Z" />
<glyph unicode="f" glyph-name="f" horiz-adv-x="329" d="M315 635Q291 643 264 643T217 621T196 553V507H308V443H196V0H117V443H30V507H117V554Q117 628 156 671T266 714Q290 714 315 707V635Z" />
<glyph unicode="g" glyph-name="g" horiz-adv-x="549" d="M403 507H482V41Q482 -75 418 -133T258 -192T96 -161V-82Q160 -119 240 -119Q403 -119 403 42V99Q353 13 260 13T106 77T44 254T101 441T256 514T403 423V507ZM126 172T168 128T264 83T360 125T403 258T362
396T262 443T164 392T126 256Z" />
<glyph unicode="h" glyph-name="h" horiz-adv-x="540" d="M151 707V419Q196 514 311 514Q384 514 428 469T473 347V0H394V328Q394 383 366 413T286 443T193 400T151 277V0H73V707H151Z" />
<glyph unicode="i" glyph-name="i" horiz-adv-x="233" d="M65 644T65 666T79 703T116 718T153 703T168 666T153 630T116 615T80 629ZM77 0V507H156V0H77Z" />
<glyph unicode="j" glyph-name="j" horiz-adv-x="228" d="M65 644T65 666T79 703T116 718T153 703T168 666T153 630T116 615T80 629ZM22 -126Q78 -126 78 -53V507H156V-55Q156 -121 122 -158T26 -195Q-7 -195 -46 -180V-110Q-8 -126 22 -126Z" />
<glyph unicode="k" glyph-name="k" horiz-adv-x="480" d="M254 266L460 0H365L161 266L360 507H454L254 266ZM73 0V703H151V0H73Z" />
<glyph unicode="l" glyph-name="l" horiz-adv-x="233" d="M77 0V707H156V0H77Z" />
<glyph unicode="m" glyph-name="m" horiz-adv-x="818" d="M151 507V425Q193 514 294 514Q411 514 442 415Q464 463 503 488T592 514Q671 514 711 469T751 348V0H672V328Q672 443 575 443Q527 443 489 400T451 277V0H372V328Q372 443 275 443Q227 443 189 400T151
277V0H73V507H151Z" />
<glyph unicode="n" glyph-name="n" horiz-adv-x="540" d="M151 507V419Q196 514 311 514Q385 514 429 469T473 349V0H394V328Q394 384 366 413T286 443T193 399T151 277V0H73V507H151Z" />
<glyph unicode="o" glyph-name="o" horiz-adv-x="562" d="M437 335T398 389T283 444T166 388T125 252T167 117T282 61T396 115T437 252ZM519 139T455 65T281 -9T107 64T43 250T108 438T284 514T456 440T519 253Z" />
<glyph unicode="p" glyph-name="p" horiz-adv-x="567" d="M151 507V430Q204 515 306 515T466 442T524 255T464 67T305 -8T151 77V-197H73V507H151ZM151 156T196 110T300 64T401 114T442 253T402 392T301 443T196 399T151 255Z" />
<glyph unicode="q" glyph-name="q" horiz-adv-x="567" d="M415 507H494V-197H415V76Q360 -8 262 -8T104 66T43 254T101 441T260 515T415 432V507ZM125 165T166 115T266 64T370 109T415 254T371 398T266 443T165 392T125 253Z" />
<glyph unicode="r" glyph-name="r" horiz-adv-x="326" d="M151 507V418Q191 512 289 512Q307 512 317 510V432Q296 439 274 439Q221 439 186 390T151 277V0H72L73 507H151Z" />
<glyph unicode="s" glyph-name="s" horiz-adv-x="412" d="M223 443Q183 443 160 425T136 383T143 346T170 319Q194 304 250 281T342 224T378 131T333 32T202 -6T59 25V102Q126 62 203 62Q249 62 273 80T297 131T271 185T185 228T91 285T56 377T103 474T226 512T349
490V415Q303 443 223 443Z" />
<glyph unicode="t" glyph-name="t" horiz-adv-x="369" d="M182 443V146Q182 65 258 65Q297 65 327 88V13Q294 -5 253 -5Q103 -5 103 148V443H22V507H103V633H182V507H322V443H182Z" />
<glyph unicode="u" glyph-name="u" horiz-adv-x="540" d="M388 507H467V0H388V88Q348 -6 229 -6Q154 -6 111 38T67 158V507H146V178Q146 123 174 94T257 65T350 109T388 228V507Z" />
<glyph unicode="v" glyph-name="v" horiz-adv-x="505" d="M202 0L25 507H107L251 62Q260 105 326 293L398 507H480L299 0H202Z" />
<glyph unicode="w" glyph-name="w" horiz-adv-x="792" d="M181 0L25 507H109Q208 169 229 77Q240 126 350 507H434L558 76Q571 129 686 507H767L607 0H510L462 166L392 419Q380 370 278 0H181Z" />
<glyph unicode="x" glyph-name="x" horiz-adv-x="478" d="M283 259L453 0H362L239 200L112 0H25L195 260L35 508H126L241 318L357 508H447L283 259Z" />
<glyph unicode="y" glyph-name="y" horiz-adv-x="493" d="M78 -174Q52 -174 36 -169V-98Q51 -102 70 -102Q171 -102 213 13L8 507H97L252 110Q260 138 391 507H476L293 13Q254 -90 201 -132T78 -174Z" />
<glyph unicode="z" glyph-name="z" horiz-adv-x="453" d="M395 507V449L135 71H409V0H44V62L301 437H54V507H395Z" />
<glyph unicode="{" glyph-name="braceleft" horiz-adv-x="334" d="M288 636Q257 636 241 615T225 565T235 485T246 405Q246 349 215 310T124 262Q183 253 214 214T246 119Q246 89 236 38T225 -42T241 -92T288 -113Q304 -113 321 -104V-181Q300 -189 274 -189Q219
-189 182 -149T144 -40Q144 -13 154 34T165 103Q165 204 77 222Q68 224 48 224V301Q114 301 142 342Q165 374 165 420Q165 442 155 489T144 563Q144 631 182 672T274 713Q295 713 321 705V627Q304 636 288 636Z" />
<glyph unicode="|" glyph-name="bar" horiz-adv-x="228" d="M78 -194V695H150V-194H78Z" />
<glyph unicode="}" glyph-name="braceright" horiz-adv-x="334" d="M60 713Q114 713 152 672T190 563Q190 536 180 489T169 420Q169 374 192 342Q220 301 286 301V224Q219 224 190 181Q169 149 169 103Q169 81 179 34T190 -40Q190 -108 153 -148T60 -189Q34 -189
13 -181V-104Q30 -113 53 -113T93 -92T109 -42T99 38T89 119Q89 174 120 213T210 262Q152 271 121 310T89 405Q89 435 99 485T109 565T93 615T54 636T13 627V705Q39 713 60 713Z" />
<glyph unicode="~" glyph-name="asciitilde" horiz-adv-x="599" d="M420 194Q373 194 303 231T204 268Q137 268 89 199L36 245Q104 340 192 340Q246 340 313 303T413 266Q469 266 504 326L563 284Q505 194 420 194Z" />
<glyph unicode="&#xa0;" glyph-name="uni00A0" horiz-adv-x="244" />
<glyph unicode="&#xa1;" glyph-name="exclamdown" horiz-adv-x="251" d="M87 -165V305H164V-165H87ZM99 399T82 416T65 459T81 500T124 517T167 500T184 459T167 417T124 399Z" />
<glyph unicode="&#xa2;" glyph-name="cent" horiz-adv-x="452" d="M318 441Q231 441 180 387T127 251Q128 170 177 117T318 64Q370 64 412 88V14Q379 -2 334 -7V-111H265V-5Q162 8 104 80T46 250T104 422T265 510V615H334V512Q376 507 412 490V416Q365 441 318 441Z" />
<glyph unicode="&#xa3;" glyph-name="sterling" horiz-adv-x="522" d="M483 69V0H61V66Q118 93 139 133T160 249Q160 262 158 292H66V355H151Q143 423 143 449Q143 550 196 604T347 659Q405 659 455 634V556Q407 584 355 584Q224 584 224 453Q224 423 232 355H412V292H238Q240
262 240 250Q240 173 220 133T161 69H483Z" />
<glyph unicode="&#xa4;" glyph-name="currency" horiz-adv-x="543" d="M207 462T165 420T123 313T165 206T271 163T378 205T420 311T378 419T272 462ZM93 183Q55 236 55 308T95 437L34 498L85 547L145 486Q202 527 273 527T401 490L459 547L509 498L451 440Q489
384 489 314T447 186L509 125L459 76L397 137Q341 98 269 98T143 134L85 76L34 125L93 183Z" />
<glyph unicode="&#xa5;" glyph-name="yen" horiz-adv-x="585" d="M509 362V303H358L331 254V215H509V157H331V0H249V157H72V215H249V253L222 303H72V362H190L33 654H125L290 332L457 654H549L390 362H509Z" />
<glyph unicode="&#xa6;" glyph-name="brokenbar" horiz-adv-x="228" d="M150 -178H78V153H150V-178ZM150 367H78V698H150V367Z" />
<glyph unicode="&#xa7;" glyph-name="section" horiz-adv-x="512" d="M417 564Q356 604 282 604Q139 604 139 511Q139 472 169 451Q195 432 233 417T296 390T339 370T384 342T424 306Q458 262 458 197T415 84Q456 41 456 -22Q456 -109 396 -156T234 -203T59 -159V-72Q133
-128 237 -128Q302 -128 337 -101T373 -28T343 43T261 91T195 121T153 142T111 171T81 204Q51 238 51 301T93 412Q55 450 55 508Q55 591 115 635T266 680T417 649V564ZM158 369Q132 340 132 308T141 256T174 220Q210 195 271 169T354 131Q379 161 379 203T348 271T278
315T207 347T158 369Z" />
<glyph unicode="&#xa8;" glyph-name="dieresis" horiz-adv-x="421" d="M260 701T260 723T274 759T311 774T348 760T363 723T348 686T311 671T275 686ZM58 701T58 723T73 759T110 774T146 760T161 723T147 686T110 671T73 686Z" />
<glyph unicode="&#xa9;" glyph-name="copyright" horiz-adv-x="776" d="M294 280T328 244T412 208T495 233V168Q463 147 411 147Q325 147 274 201T223 334T274 468T412 524Q459 524 495 504V439Q460 462 411 462T328 427T293 336ZM110 452T110 336T192 139T389
57T586 138T668 336T586 534T389 616T192 534ZM246 -9T145 93T43 336T144 580T388 682T631 580T733 337T632 93T388 -9Z" />
<glyph unicode="&#xaa;" glyph-name="ordfeminine" horiz-adv-x="350" d="M33 795Q86 826 164 826Q320 826 320 662V392H255V446Q211 388 136 388Q76 388 39 421T2 514T49 608T178 643H253V664Q253 715 231 741T148 767T33 730V795ZM253 588H190Q71 588 71 514Q71
483 92 464T155 445T225 470T253 529V588Z" />
<glyph unicode="&#xab;" glyph-name="guillemotleft" horiz-adv-x="480" d="M450 415L304 253L450 91H363L213 253L363 415H450ZM264 415L118 253L264 91H177L27 253L177 415H264Z" />
<glyph unicode="&#xac;" glyph-name="logicalnot" horiz-adv-x="549" d="M512 160H439V342H25V413H512V160Z" />
<glyph unicode="&#xad;" glyph-name="uni00AD" horiz-adv-x="348" d="M57 234V303H291V234H57Z" />
<glyph unicode="&#xae;" glyph-name="registered" horiz-adv-x="449" d="M10 666T70 727T224 788T378 727T439 573T379 420T225 360T71 420T10 573ZM59 498T104 452T225 406T347 452T393 573T347 694T226 741T105 695T59 573ZM159 687H220Q302 687 302 619Q302
576 266 559L320 473H268L222 551H203V473H159V687ZM203 651V587H228Q257 587 257 619T225 651H203Z" />
<glyph unicode="&#xaf;" glyph-name="overscore" horiz-adv-x="421" d="M351 693H69V749H351V693Z" />
<glyph unicode="&#xb0;" glyph-name="degree" horiz-adv-x="355" d="M93 567T93 531T118 470T179 445T238 470T261 531T237 592T176 618T117 593ZM112 386T71 426T30 529T72 634T178 676T283 636T325 533T282 428T176 386Z" />
<glyph unicode="&#xb1;" glyph-name="plusminus" horiz-adv-x="553" d="M310 400H497V331H310V162H236V331H57V400H236V569H310V400ZM57 30V100H497V30H57Z" />
<glyph unicode="&#xb2;" glyph-name="twosuperior" horiz-adv-x="365" d="M47 392V441Q245 590 245 690Q245 729 224 748T168 767Q114 767 61 724V793Q115 826 172 826T270 792T311 697T263 571T136 447H326V392H47Z" />
<glyph unicode="&#xb3;" glyph-name="threesuperior" horiz-adv-x="325" d="M103 637H127Q163 637 187 655T212 705Q212 768 139 768Q95 768 47 737V800Q91 826 149 826T242 793T278 715T257 645T199 611Q236 608 263 579T290 503T253 422T150 388T35 413V473Q85
445 134 445Q225 445 225 511Q225 544 200 563T127 582H103V637Z" />
<glyph unicode="&#xb4;" glyph-name="acute" horiz-adv-x="421" d="M115 642L214 798H308L184 642H115Z" />
<glyph unicode="&#xb5;" glyph-name="uni00B5" horiz-adv-x="546" d="M394 507H473V0H394V77Q358 -6 261 -6Q195 -6 151 32V-179H73V507H151V178Q151 125 187 95T276 65T361 108T394 228V507Z" />
<glyph unicode="&#xb6;" glyph-name="paragraph" horiz-adv-x="545" d="M401 -148V674H472V-148H401ZM286 674V-148H215V341Q125 341 76 388T26 504T76 623T219 674H286Z" />
<glyph unicode="&#xb7;" glyph-name="middot" horiz-adv-x="232" d="M57 294T57 319T74 361T116 378T158 361T175 319T158 277T116 260T74 277Z" />
<glyph unicode="&#xb8;" glyph-name="cedilla" horiz-adv-x="421" d="M267 -51Q285 -76 285 -126T247 -213T135 -252V-194Q219 -188 219 -123Q219 -89 196 -51H267Z" />
<glyph unicode="&#xb9;" glyph-name="onesuperior" horiz-adv-x="250" d="M179 822V392H117V749L10 690V755L127 822H179Z" />
<glyph unicode="&#xba;" glyph-name="ordmasculine" horiz-adv-x="376" d="M312 677T282 723T190 769T96 722T63 606T96 491T189 444T280 490T312 606ZM381 510T330 448T188 386T46 448T-6 605T47 764T190 828T330 766T381 607Z" />
<glyph unicode="&#xbb;" glyph-name="guillemotright" horiz-adv-x="482" d="M302 415L453 253L302 91H215L362 253L215 415H302ZM116 415L267 253L116 91H29L176 253L29 415H116Z" />
<glyph unicode="&#xbf;" glyph-name="questiondown" horiz-adv-x="452" d="M340 484T340 459T324 417T282 399T239 416T221 459T238 500T281 517T323 501ZM349 -173T254 -173T102 -125T45 9T104 142T241 196L242 305H318L319 139Q227 139 177 108T127 19T160 -69T265
-101T414 -52V-132Q349 -173 254 -173Z" />
<glyph unicode="&#xc0;" glyph-name="Agrave" horiz-adv-x="648" d="M526 0L467 177H182L122 0H35L270 674H382L613 0H526ZM205 246H444L326 609Q312 558 205 246ZM354 727H285L161 883H256L354 727Z" />
<glyph unicode="&#xc1;" glyph-name="Aacute" horiz-adv-x="648" d="M526 0L467 177H182L122 0H35L270 674H382L613 0H526ZM205 246H444L326 609Q312 558 205 246ZM492 883L368 727H299L398 883H492Z" />
<glyph unicode="&#xc2;" glyph-name="Acircumflex" horiz-adv-x="648" d="M526 0L467 177H182L122 0H35L270 674H382L613 0H526ZM205 246H444L326 609Q312 558 205 246ZM327 832L242 727H162L289 883H365L492 727H412L327 832Z" />
<glyph unicode="&#xc3;" glyph-name="Atilde" horiz-adv-x="648" d="M526 0L467 177H182L122 0H35L270 674H382L613 0H526ZM205 246H444L326 609Q312 558 205 246ZM396 757Q369 757 327 779T268 801Q227 801 200 753L157 790Q171 820 198 840T257 861T331 839T392
817Q426 817 446 860L495 826Q463 757 396 757Z" />
<glyph unicode="&#xc4;" glyph-name="Adieresis" horiz-adv-x="648" d="M526 0L467 177H182L122 0H35L270 674H382L613 0H526ZM205 246H444L326 609Q312 558 205 246ZM249 754T227 754T190 769T175 806T190 842T227 857T263 843T278 806T264 769ZM450 754T428
754T392 769T377 806T391 842T428 857T465 843T480 806T465 769Z" />
<glyph unicode="&#xc5;" glyph-name="Aring" horiz-adv-x="648" d="M526 0L467 177H182L122 0H35L270 674H382L613 0H526ZM205 246H444L326 609Q312 558 205 246ZM371 717T327 717T252 748T221 823T252 898T327 930T402 899T433 823T402 748ZM381 846T366 862T328
878T290 863T274 825T289 786T327 770T365 786T381 824Z" />
<glyph unicode="&#xc6;" glyph-name="AE" horiz-adv-x="879" d="M536 71H831V0H456V177H212L110 0H23L406 674H825V603H536V372H792V301H536V71ZM456 246V610Q391 487 252 246H456Z" />
<glyph unicode="&#xc7;" glyph-name="Ccedilla" horiz-adv-x="602" d="M387 607Q278 607 206 533T133 338T205 142T396 68Q492 68 560 119V34Q498 -8 390 -8Q238 -8 143 85T48 335T144 587T387 683Q492 683 558 647V564Q514 587 479 597T387 607ZM404 -51Q422
-76 422 -126T384 -213T272 -252V-194Q356 -188 356 -123Q356 -89 333 -51H404Z" />
<glyph unicode="&#xc8;" glyph-name="Egrave" horiz-adv-x="501" d="M158 71H453V0H77V674H448V603H158V372H414V301H158V71ZM320 726H251L127 882H222L320 726Z" />
<glyph unicode="&#xc9;" glyph-name="Eacute" horiz-adv-x="501" d="M158 71H453V0H77V674H448V603H158V372H414V301H158V71ZM437 883L313 727H244L343 883H437Z" />
<glyph unicode="&#xca;" glyph-name="Ecircumflex" horiz-adv-x="501" d="M158 71H453V0H77V674H448V603H158V372H414V301H158V71ZM273 832L188 727H108L235 883H311L438 727H358L273 832Z" />
<glyph unicode="&#xcb;" glyph-name="Edieresis" horiz-adv-x="501" d="M158 71H453V0H77V674H448V603H158V372H414V301H158V71ZM190 753T168 753T131 768T116 805T131 841T168 856T204 842T219 805T205 768ZM391 753T369 753T333 768T318 805T332 841T369 856T406
842T421 805T406 768Z" />
<glyph unicode="&#xcc;" glyph-name="Igrave" horiz-adv-x="247" d="M55 883L153 727H84L-40 883H55ZM83 0V674H164V0H83Z" />
<glyph unicode="&#xcd;" glyph-name="Iacute" horiz-adv-x="247" d="M93 727L192 883H286L162 727H93ZM83 0V674H164V0H83Z" />
<glyph unicode="&#xce;" glyph-name="Icircumflex" horiz-adv-x="247" d="M83 0V674H164V0H83ZM86 883H162L289 727H209L124 832L39 727H-41L86 883Z" />
<glyph unicode="&#xcf;" glyph-name="Idieresis" horiz-adv-x="247" d="M175 784T175 806T189 842T226 857T263 843T278 806T263 769T226 754T190 769ZM-27 784T-27 806T-12 842T25 857T61 843T76 806T62 769T25 754T-12 769ZM83 0V674H164V0H83Z" />
<glyph unicode="&#xd0;" glyph-name="Eth" horiz-adv-x="730" d="M146 674H346Q496 674 591 582T686 343T598 98T350 0H146V304H61V372H146V674ZM228 71H350Q414 71 463 93T542 154Q602 231 602 341T531 527T345 602H228V372H403V304H228V71Z" />
<glyph unicode="&#xd1;" glyph-name="Ntilde" horiz-adv-x="673" d="M415 757Q388 757 346 779T287 801Q246 801 219 753L176 790Q190 820 217 840T276 861T350 839T411 817Q445 817 465 860L514 826Q482 757 415 757ZM77 0V674H179L348 390L519 98Q515 195 515
389V674H596V0H494Q214 467 153 577Q158 473 158 284V0H77Z" />
<glyph unicode="&#xd2;" glyph-name="Ograve" horiz-adv-x="700" d="M295 883L393 727H324L200 883H295ZM248 611T191 539T133 341T192 142T353 69T510 141T567 340T510 539T351 611ZM214 -8T131 87T48 340T129 593T351 687T572 594T653 341T572 87T352 -8Z" />
<glyph unicode="&#xd3;" glyph-name="Oacute" horiz-adv-x="700" d="M248 611T191 539T133 341T192 142T353 69T510 141T567 340T510 539T351 611ZM214 -8T131 87T48 340T129 593T351 687T572 594T653 341T572 87T352 -8ZM324 727L423 883H517L393 727H324Z" />
<glyph unicode="&#xd4;" glyph-name="Ocircumflex" horiz-adv-x="700" d="M319 883H395L522 727H442L357 832L272 727H192L319 883ZM214 -8T131 87T48 340T129 593T351 687T572 594T653 341T572 87T352 -8ZM248 611T191 539T133 341T192 142T353 69T510 141T567
340T510 539T351 611Z" />
<glyph unicode="&#xd5;" glyph-name="Otilde" horiz-adv-x="700" d="M422 758Q395 758 353 780T294 802Q253 802 226 754L183 791Q197 821 224 841T283 862T357 840T418 818Q452 818 472 861L521 827Q489 758 422 758ZM248 611T191 539T133 341T192 142T353 69T510
141T567 340T510 539T351 611ZM214 -8T131 87T48 340T129 593T351 687T572 594T653 341T572 87T352 -8Z" />
<glyph unicode="&#xd6;" glyph-name="Odieresis" horiz-adv-x="700" d="M248 611T191 539T133 341T192 142T353 69T510 141T567 340T510 539T351 611ZM214 -8T131 87T48 340T129 593T351 687T572 594T653 341T572 87T352 -8ZM404 784T404 806T418 842T455 857T492
843T507 806T492 769T455 754T419 769ZM202 784T202 806T217 842T254 857T290 843T305 806T291 769T254 754T217 769Z" />
<glyph unicode="&#xd7;" glyph-name="multiply" horiz-adv-x="491" d="M431 475L296 341L428 210L377 159L245 290L114 159L63 211L194 341L59 475L110 525L245 392L380 526L431 475Z" />
<glyph unicode="&#xd8;" glyph-name="Oslash" horiz-adv-x="675" d="M572 586Q646 493 646 337T565 87T345 -8Q242 -8 168 46L127 -9H41L118 94Q41 190 41 344T122 593T343 687Q448 687 520 635L559 687H647L572 586ZM343 612Q241 612 183 540T125 351T169 163L473
571Q421 612 343 612ZM345 67Q448 67 505 139T562 330T520 518L216 110Q270 67 345 67Z" />
<glyph unicode="&#xd9;" glyph-name="Ugrave" horiz-adv-x="645" d="M262 883L360 727H291L167 883H262ZM488 254V674H569V256Q569 126 504 59T322 -8T141 57T76 248V674H157V249Q157 156 201 112T321 68Q488 68 488 254Z" />
<glyph unicode="&#xda;" glyph-name="Uacute" horiz-adv-x="645" d="M488 254V674H569V256Q569 126 504 59T322 -8T141 57T76 248V674H157V249Q157 156 201 112T321 68Q488 68 488 254ZM300 727L399 883H493L369 727H300Z" />
<glyph unicode="&#xdb;" glyph-name="Ucircumflex" horiz-adv-x="645" d="M286 883H362L489 727H409L324 832L239 727H159L286 883ZM488 254V674H569V256Q569 126 504 59T322 -8T141 57T76 248V674H157V249Q157 156 201 112T321 68Q488 68 488 254Z" />
<glyph unicode="&#xdc;" glyph-name="Udieresis" horiz-adv-x="645" d="M488 254V674H569V256Q569 126 504 59T322 -8T141 57T76 248V674H157V249Q157 156 201 112T321 68Q488 68 488 254ZM373 784T373 806T387 842T424 857T461 843T476 806T461 769T424 754T388
769ZM171 784T171 806T186 842T223 857T259 843T274 806T260 769T223 754T186 769Z" />
<glyph unicode="&#xdd;" glyph-name="Yacute" horiz-adv-x="593" d="M336 0H255V250L26 674H120Q277 370 295 324Q300 339 473 674H567L336 251V0ZM472 882L348 726H279L378 882H472Z" />
<glyph unicode="&#xde;" glyph-name="Thorn" horiz-adv-x="536" d="M158 550H246Q368 550 433 491T498 336T434 183T254 124H158V0H77V674H158V550ZM158 193H257Q336 193 376 231T416 335T375 440T249 481H158V193Z" />
<glyph unicode="&#xdf;" glyph-name="germandbls" horiz-adv-x="541" d="M258 82Q297 62 341 62T409 81T434 129T419 180T381 219T337 255Q284 298 284 352Q284 379 296 404T324 444T352 484T365 539T338 594T267 617Q155 617 155 498V0H76V496Q76 592 128 641T264
690T396 645T445 536Q445 492 426 459T387 402T368 359T383 323T419 289T461 253T497 203T512 137Q512 74 468 34T344 -7Q289 -7 258 6V82Z" />
<glyph unicode="&#xe0;" glyph-name="agrave" horiz-adv-x="492" d="M234 515Q425 515 425 321V0H347V60Q308 -5 205 -5Q134 -5 91 37T47 147T102 256T254 297H346V323Q346 383 319 413T220 444T84 401V480Q141 515 234 515ZM346 234H258Q194 234 162 209T130
146T155 85T231 61T314 91T346 169V234ZM291 560H222L98 716H193L291 560Z" />
<glyph unicode="&#xe1;" glyph-name="aacute" horiz-adv-x="492" d="M234 515Q425 515 425 321V0H347V60Q308 -5 205 -5Q134 -5 91 37T47 147T102 256T254 297H346V323Q346 383 319 413T220 444T84 401V480Q141 515 234 515ZM346 234H258Q194 234 162 209T130
146T155 85T231 61T314 91T346 169V234ZM416 716L292 560H223L322 716H416Z" />
<glyph unicode="&#xe2;" glyph-name="acircumflex" horiz-adv-x="492" d="M234 515Q425 515 425 321V0H347V60Q308 -5 205 -5Q134 -5 91 37T47 147T102 256T254 297H346V323Q346 383 319 413T220 444T84 401V480Q141 515 234 515ZM346 234H258Q194 234 162 209T130
146T155 85T231 61T314 91T346 169V234ZM254 664L169 559H89L216 715H292L419 559H339L254 664Z" />
<glyph unicode="&#xe3;" glyph-name="atilde" horiz-adv-x="492" d="M234 515Q425 515 425 321V0H347V60Q308 -5 205 -5Q134 -5 91 37T47 147T102 256T254 297H346V323Q346 383 319 413T220 444T84 401V480Q141 515 234 515ZM346 234H258Q194 234 162 209T130
146T155 85T231 61T314 91T346 169V234ZM320 590Q293 590 251 612T192 634Q151 634 124 586L81 623Q95 653 122 673T181 694T255 672T316 650Q350 650 370 693L419 659Q387 590 320 590Z" />
<glyph unicode="&#xe4;" glyph-name="adieresis" horiz-adv-x="492" d="M234 515Q425 515 425 321V0H347V60Q308 -5 205 -5Q134 -5 91 37T47 147T102 256T254 297H346V323Q346 383 319 413T220 444T84 401V480Q141 515 234 515ZM346 234H258Q194 234 162 209T130
146T155 85T231 61T314 91T346 169V234ZM174 584T152 584T115 599T100 636T115 672T152 687T188 673T203 636T189 599ZM375 584T353 584T317 599T302 636T316 672T353 687T390 673T405 636T390 599Z" />
<glyph unicode="&#xe5;" glyph-name="aring" horiz-adv-x="492" d="M234 515Q425 515 425 321V0H347V60Q308 -5 205 -5Q134 -5 91 37T47 147T102 256T254 297H346V323Q346 383 319 413T220 444T84 401V480Q141 515 234 515ZM346 234H258Q194 234 162 209T130 146T155
85T231 61T314 91T346 169V234ZM299 550T255 550T180 581T149 656T180 731T255 763T330 732T361 656T330 581ZM309 680T294 695T256 711T218 696T202 658T217 619T255 603T293 619T309 657Z" />
<glyph unicode="&#xe6;" glyph-name="ae" horiz-adv-x="819" d="M439 145T488 105T614 65T743 100V26Q686 -5 612 -5T482 23T396 99Q377 53 330 24T213 -5T97 34T52 145T108 257T261 298H351V323Q351 383 324 413T225 444T89 402V479Q147 515 236 515Q365 515
401 425Q460 513 576 513Q674 513 726 452T779 275Q779 247 774 220H430Q439 145 488 105ZM701 286V306Q700 372 666 408T575 444T479 404T429 286H701ZM351 177V232H276Q134 232 134 145Q134 108 159 86T234 64T317 95T351 177Z" />
<glyph unicode="&#xe7;" glyph-name="ccedilla" horiz-adv-x="471" d="M321 -51Q339 -76 339 -126T301 -213T189 -252V-194Q273 -188 273 -123Q273 -89 250 -51H321ZM314 60Q372 60 422 93V18Q374 -11 304 -11Q184 -11 114 65T43 251T113 438T306 516Q371 516
422 488V413Q376 444 314 444Q228 444 177 389T125 251T175 115T314 60Z" />
<glyph unicode="&#xe8;" glyph-name="egrave" horiz-adv-x="522" d="M299 -5Q184 -5 114 65T43 254T106 443T266 513T419 452T475 279Q475 247 470 220H124Q133 145 181 105T310 65T443 100V26Q384 -5 299 -5ZM396 286V306Q396 369 362 406T270 444T171 403T124
286H396ZM318 560H249L125 716H220L318 560Z" />
<glyph unicode="&#xe9;" glyph-name="eacute" horiz-adv-x="522" d="M299 -5Q184 -5 114 65T43 254T106 443T266 513T419 452T475 279Q475 247 470 220H124Q133 145 181 105T310 65T443 100V26Q384 -5 299 -5ZM396 286V306Q396 369 362 406T270 444T171 403T124
286H396ZM444 716L320 560H251L350 716H444Z" />
<glyph unicode="&#xea;" glyph-name="ecircumflex" horiz-adv-x="522" d="M299 -5Q184 -5 114 65T43 254T106 443T266 513T419 452T475 279Q475 247 470 220H124Q133 145 181 105T310 65T443 100V26Q384 -5 299 -5ZM396 286V306Q396 369 362 406T270 444T171 403T124
286H396ZM281 665L196 560H116L243 716H319L446 560H366L281 665Z" />
<glyph unicode="&#xeb;" glyph-name="edieresis" horiz-adv-x="522" d="M299 -5Q184 -5 114 65T43 254T106 443T266 513T419 452T475 279Q475 247 470 220H124Q133 145 181 105T310 65T443 100V26Q384 -5 299 -5ZM396 286V306Q396 369 362 406T270 444T171 403T124
286H396ZM203 587T181 587T144 602T129 639T144 675T181 690T217 676T232 639T218 602ZM404 587T382 587T346 602T331 639T345 675T382 690T419 676T434 639T419 602Z" />
<glyph unicode="&#xec;" glyph-name="igrave" horiz-adv-x="233" d="M47 715L145 559H76L-48 715H47ZM77 0V507H156V0H77Z" />
<glyph unicode="&#xed;" glyph-name="iacute" horiz-adv-x="233" d="M88 560L187 716H281L157 560H88ZM77 0V507H156V0H77Z" />
<glyph unicode="&#xee;" glyph-name="icircumflex" horiz-adv-x="233" d="M77 0V507H156V0H77ZM79 716H155L282 560H202L117 665L32 560H-48L79 716Z" />
<glyph unicode="&#xef;" glyph-name="idieresis" horiz-adv-x="233" d="M166 618T166 640T180 676T217 691T254 677T269 640T254 603T217 588T181 603ZM-36 618T-36 640T-21 676T16 691T52 677T67 640T53 603T16 588T-21 603ZM77 0V507H156V0H77Z" />
<glyph unicode="&#xf0;" glyph-name="eth" horiz-adv-x="517" d="M471 269Q471 133 412 62T255 -9T97 53T38 206T97 353T243 408T390 340Q372 446 301 536L161 464V525L263 577Q204 636 131 674H255Q295 648 330 612L452 674V613L367 569Q471 435 471 269ZM120
138T157 101T253 64T352 110T396 256Q336 335 245 335Q191 335 156 300T120 201Z" />
<glyph unicode="&#xf1;" glyph-name="ntilde" horiz-adv-x="540" d="M151 507V419Q196 514 311 514Q385 514 429 469T473 349V0H394V328Q394 384 366 413T286 443T193 399T151 277V0H73V507H151ZM350 590Q323 590 281 612T222 634Q181 634 154 586L111 623Q125
653 152 673T211 694T285 672T346 650Q380 650 400 693L449 659Q417 590 350 590Z" />
<glyph unicode="&#xf2;" glyph-name="ograve" horiz-adv-x="562" d="M220 716L318 560H249L125 716H220ZM437 335T398 389T283 444T166 388T125 252T167 117T282 61T396 115T437 252ZM519 139T455 65T281 -9T107 64T43 250T108 438T284 514T456 440T519 253Z" />
<glyph unicode="&#xf3;" glyph-name="oacute" horiz-adv-x="562" d="M437 335T398 389T283 444T166 388T125 252T167 117T282 61T396 115T437 252ZM519 139T455 65T281 -9T107 64T43 250T108 438T284 514T456 440T519 253ZM258 560L357 716H451L327 560H258Z" />
<glyph unicode="&#xf4;" glyph-name="ocircumflex" horiz-adv-x="562" d="M246 715H322L449 559H369L284 664L199 559H119L246 715ZM519 139T455 65T281 -9T107 64T43 250T108 438T284 514T456 440T519 253ZM437 335T398 389T283 444T166 388T125 252T167 117T282
61T396 115T437 252Z" />
<glyph unicode="&#xf5;" glyph-name="otilde" horiz-adv-x="562" d="M354 590Q327 590 285 612T226 634Q185 634 158 586L115 623Q129 653 156 673T215 694T289 672T350 650Q384 650 404 693L453 659Q421 590 354 590ZM437 335T398 389T283 444T166 388T125 252T167
117T282 61T396 115T437 252ZM519 139T455 65T281 -9T107 64T43 250T108 438T284 514T456 440T519 253Z" />
<glyph unicode="&#xf6;" glyph-name="odieresis" horiz-adv-x="562" d="M437 335T398 389T283 444T166 388T125 252T167 117T282 61T396 115T437 252ZM519 139T455 65T281 -9T107 64T43 250T108 438T284 514T456 440T519 253ZM339 615T339 637T353 673T390 688T427
674T442 637T427 600T390 585T354 600ZM137 615T137 637T152 673T189 688T225 674T240 637T226 600T189 585T152 600Z" />
<glyph unicode="&#xf7;" glyph-name="divide" horiz-adv-x="553" d="M254 109T239 124T223 161T238 198T275 214T312 199T328 162T313 125T276 109ZM57 304V376H497V304H57ZM254 466T239 481T223 518T238 555T275 571T312 556T328 519T313 482T276 466Z" />
<glyph unicode="&#xf8;" glyph-name="oslash" horiz-adv-x="563" d="M474 436Q533 363 533 251T469 65T293 -9Q221 -9 165 26L138 -9H56L115 70Q56 141 56 251T122 438T293 514Q368 514 424 479L450 514H533L474 436ZM292 450Q217 450 175 393T133 259T163 133L383
425Q345 450 292 450ZM293 55Q372 55 414 111T456 245T428 375L207 82Q245 55 293 55Z" />
<glyph unicode="&#xf9;" glyph-name="ugrave" horiz-adv-x="540" d="M388 507H467V0H388V88Q348 -6 229 -6Q154 -6 111 38T67 158V507H146V178Q146 123 174 94T257 65T350 109T388 228V507ZM304 559H235L111 715H206L304 559Z" />
<glyph unicode="&#xfa;" glyph-name="uacute" horiz-adv-x="540" d="M388 507H467V0H388V88Q348 -6 229 -6Q154 -6 111 38T67 158V507H146V178Q146 123 174 94T257 65T350 109T388 228V507ZM433 716L309 560H240L339 716H433Z" />
<glyph unicode="&#xfb;" glyph-name="ucircumflex" horiz-adv-x="540" d="M388 507H467V0H388V88Q348 -6 229 -6Q154 -6 111 38T67 158V507H146V178Q146 123 174 94T257 65T350 109T388 228V507ZM269 665L184 560H104L231 716H307L434 560H354L269 665Z" />
<glyph unicode="&#xfc;" glyph-name="udieresis" horiz-adv-x="540" d="M388 507H467V0H388V88Q348 -6 229 -6Q154 -6 111 38T67 158V507H146V178Q146 123 174 94T257 65T350 109T388 228V507ZM192 585T170 585T133 600T118 637T133 673T170 688T206 674T221 637T207
600ZM393 585T371 585T335 600T320 637T334 673T371 688T408 674T423 637T408 600Z" />
<glyph unicode="&#xfd;" glyph-name="yacute" horiz-adv-x="493" d="M78 -174Q52 -174 36 -169V-98Q51 -102 70 -102Q171 -102 213 13L8 507H97L252 110Q260 138 391 507H476L293 13Q254 -90 201 -132T78 -174ZM222 560L321 716H415L291 560H222Z" />
<glyph unicode="&#xfe;" glyph-name="thorn" horiz-adv-x="567" d="M151 707V430Q204 515 306 515T466 442T524 255T464 67T305 -8T151 77V-197H73V707H151ZM151 156T196 110T300 64T401 114T442 253T402 392T301 443T196 399T151 255Z" />
<glyph unicode="&#xff;" glyph-name="ydieresis" horiz-adv-x="493" d="M78 -174Q52 -174 36 -169V-98Q51 -102 70 -102Q171 -102 213 13L8 507H97L252 110Q260 138 391 507H476L293 13Q254 -90 201 -132T78 -174ZM103 615T103 637T118 673T155 688T191 674T206
637T192 600T155 585T118 600ZM305 615T305 637T319 673T356 688T393 674T408 637T393 600T356 585T320 600Z" />
<glyph unicode="&#x2013;" glyph-name="endash" horiz-adv-x="540" d="M57 237V303H483V237H57Z" />
<glyph unicode="&#x2014;" glyph-name="emdash" horiz-adv-x="823" d="M57 239V305H766V239H57Z" />
<glyph unicode="&#x2018;" glyph-name="quoteleft" horiz-adv-x="180" d="M193 695L109 471H11L131 695H193Z" />
<glyph unicode="&#x2019;" glyph-name="quoteright" horiz-adv-x="181" d="M12 471L96 695H194L74 471H12Z" />
<glyph unicode="&#x201a;" glyph-name="quotesinglbase" horiz-adv-x="181" d="M2 -123L85 101H183L64 -123H2Z" />
<glyph unicode="&#x201c;" glyph-name="quotedblleft" horiz-adv-x="324" d="M337 695L254 471H159L276 695H337ZM193 695L109 471H12L132 695H193Z" />
<glyph unicode="&#x201d;" glyph-name="quotedblright" horiz-adv-x="323" d="M12 471L95 695H189L73 471H12ZM155 471L240 695H337L216 471H155Z" />
<glyph unicode="&#x201e;" glyph-name="quotedblbase" horiz-adv-x="323" d="M3 -123L85 101H180L64 -123H3ZM146 -123L230 101H327L207 -123H146Z" />
<glyph unicode="&#x2022;" glyph-name="bullet" horiz-adv-x="449" d="M92 299T92 356T129 451T223 489T318 451T357 356T319 262T225 223T130 261Z" />
<glyph unicode="&#x2039;" glyph-name="guilsinglleft" horiz-adv-x="299" d="M267 415L120 253L267 91H180L29 253L180 415H267Z" />
<glyph unicode="&#x203a;" glyph-name="guilsinglright" horiz-adv-x="297" d="M120 415L270 253L120 91H32L179 253L32 415H120Z" />
</font>
</defs>
</svg>
