<?xml version="1.0" standalone="no"?>
<!DOCTYPE svg PUBLIC "-//W3C//DTD SVG 20010904//EN"
 "http://www.w3.org/TR/2001/REC-SVG-20010904/DTD/svg10.dtd">
<svg version="1.0" xmlns="http://www.w3.org/2000/svg"
 width="16.000000pt" height="16.000000pt" viewBox="0 0 16.000000 16.000000"
 preserveAspectRatio="xMidYMid meet">
<metadata>
Created by potrace 1.11, written by Peter Selinger 2001-2013
</metadata>
<g transform="translate(0.000000,16.000000) scale(0.008889,-0.008889)"
fill="#000000" stroke="none">
<path d="M889 1685 c-2 -2 -38 -6 -80 -9 -337 -27 -614 -150 -724 -322 -64
-99 -80 -163 -79 -309 0 -139 3 -162 39 -300 52 -200 141 -354 243 -422 21
-14 31 -35 15 -31 -10 3 -65 -8 -176 -34 -109 -25 -104 -38 26 -68 112 -25
105 -24 305 -55 13 -2 53 -7 90 -11 37 -3 78 -8 92 -10 61 -7 272 -4 340 6
225 32 443 137 564 271 103 114 178 267 212 429 19 89 25 314 12 400 -17 111
-68 212 -148 290 -83 82 -180 127 -355 166 -33 7 -370 16 -376 9z"/>
</g>
</svg>
