<?xml version="1.0" encoding="UTF-8"?>
<svg xmlns="http://www.w3.org/2000/svg" xmlns:xlink="http://www.w3.org/1999/xlink" viewBox="0 0 48 48" version="1.1" width="96px" height="96px">
<g id="surface1">
<path style=" fill:#FFC107;" d="M 41 42 L 7 42 C 4.792969 42 3 40.207031 3 38 L 3 10 C 3 7.792969 4.792969 6 7 6 L 41 6 C 43.207031 6 45 7.792969 45 10 L 45 38 C 45 40.207031 43.207031 42 41 42 Z "/>
<path style=" fill:#388E3C;" d="M 7 10 L 41 10 L 41 38 L 7 38 Z "/>
<path style=" fill:#FFFFFF;" d="M 28 36 L 36 36 L 36 38 L 28 38 Z "/>
<path style=" fill:#FFFFFF;" d="M 27 20 C 27 21.65625 25.65625 23 24 23 C 22.34375 23 21 21.65625 21 20 C 21 18.34375 22.34375 17 24 17 C 25.65625 17 27 18.34375 27 20 Z "/>
<path style=" fill:#A5D6A7;" d="M 18 23 C 18 24.105469 17.105469 25 16 25 C 14.894531 25 14 24.105469 14 23 C 14 21.894531 14.894531 21 16 21 C 17.105469 21 18 21.894531 18 23 Z "/>
<path style=" fill:#2E7D32;" d="M 7 10 L 41 10 L 41 12 L 7 12 Z "/>
<path style=" fill:#FFAB00;" d="M 36 38 L 28 38 L 32 42 L 40 42 Z "/>
<path style=" fill:#A5D6A7;" d="M 34 23 C 34 24.105469 33.105469 25 32 25 C 30.894531 25 30 24.105469 30 23 C 30 21.894531 30.894531 21 32 21 C 33.105469 21 34 21.894531 34 23 Z "/>
<path style=" fill:#A5D6A7;" d="M 37 28.6875 C 37 28.242188 36.835938 27.8125 36.53125 27.488281 C 35.839844 26.75 34.363281 26 32 26 C 29.636719 26 28.160156 26.75 27.46875 27.488281 C 27.164063 27.8125 27 28.242188 27 28.6875 L 27 30 L 37 30 Z "/>
<path style=" fill:#A5D6A7;" d="M 21 28.6875 C 21 28.242188 20.835938 27.8125 20.53125 27.488281 C 19.839844 26.75 18.363281 26 16 26 C 13.636719 26 12.160156 26.75 11.46875 27.488281 C 11.164063 27.8125 11 28.242188 11 28.6875 L 11 30 L 21 30 Z "/>
<path style=" fill:#FFFFFF;" d="M 30 27.742188 C 30 27.207031 29.804688 26.695313 29.4375 26.304688 C 28.605469 25.417969 26.835938 24 24 24 C 21.164063 24 19.394531 25.417969 18.5625 26.304688 C 18.195313 26.691406 18 27.207031 18 27.742188 L 18 30 L 30 30 Z "/>
</g>
</svg>
