<?xml version="1.0" encoding="UTF-8" standalone="no"?><!DOCTYPE svg PUBLIC "-//W3C//DTD SVG 1.1//EN" "http://www.w3.org/Graphics/SVG/1.1/DTD/svg11.dtd"><svg width="100%" height="100%" viewBox="0 0 313 313" version="1.1" xmlns="http://www.w3.org/2000/svg" xmlns:xlink="http://www.w3.org/1999/xlink" xml:space="preserve" xmlns:serif="http://www.serif.com/" style="fill-rule:evenodd;clip-rule:evenodd;stroke-linejoin:round;stroke-miterlimit:1.41421;"><path d="M312.5,203.153c0,31.629 -25.704,57.274 -57.406,57.274c-31.702,0 -57.407,-25.645 -57.407,-57.274c0,-31.633 25.705,-57.27 57.407,-57.27c31.702,0 57.406,25.637 57.406,57.27" style="fill-rule:nonzero;"/><path d="M166.193,0c-31.702,0 -57.406,25.515 -57.406,56.989c0,17.231 7.734,32.641 19.904,43.086l-54.185,101.015c-5.403,-1.668 -11.143,-2.572 -17.1,-2.572c-31.702,0 -57.406,25.516 -57.406,56.989c0,31.478 25.704,56.993 57.406,56.993c31.702,0 57.407,-25.515 57.407,-56.993c0,-16.064 -6.722,-30.549 -17.49,-40.911l54.897,-102.387c4.482,1.115 9.144,1.773 13.973,1.773c31.702,0 57.406,-25.516 57.406,-56.993c0,-31.474 -25.704,-56.989 -57.406,-56.989" style="fill-rule:nonzero;"/></svg>
