<svg width="50" height="50" xmlns="http://www.w3.org/2000/svg">
 <g>
  <title>Layer 1</title>
  <path fill="#1C8CA8" d="m43.54229,10.852919l-8.24102,0l0,-3.296408l-20.602543,0l0,3.296408l-8.241019,0c-2.426156,0 -4.395209,1.969053 -4.395209,4.395209l0,22.800151c0,2.426155 1.969054,4.39521 4.395209,4.39521l37.084582,0c2.426159,0 4.395214,-1.969055 4.395214,-4.39521l0,-22.800151c0,-2.426156 -1.969055,-4.395209 -4.395214,-4.395209zm-18.543388,29.116068c-7.344397,0 -13.317487,-5.975288 -13.317487,-13.319685c0,-7.344395 5.97309,-13.321878 13.317487,-13.321878s13.321884,5.977484 13.321884,13.321878c0,7.344397 -5.979691,13.319685 -13.321884,13.319685zm0,-22.248554c-4.931427,0 -8.926672,3.997446 -8.926672,8.926674c0,4.931421 3.997444,8.92667 8.926672,8.92667c4.931425,0 8.926674,-3.995251 8.926674,-8.92667c0.00219,-4.929228 -3.993055,-8.926674 -8.926674,-8.926674z" id="svg_1"/>
 </g>
</svg>