<svg id="Layer_1" data-name="Layer 1" xmlns="http://www.w3.org/2000/svg" viewBox="0 0 512 512"><defs><style>.cls-1{fill:#fff;}</style></defs><title>Facebook</title><path class="cls-1" style="fill:#4267b2;" d="M483.74,0H28.26A28.26,28.26,0,0,0,0,28.26V483.74A28.26,28.26,0,0,0,28.26,512H273.5V314H207V236.5h66.5v-57c0-66.13,40.39-102.14,99.38-102.14,28.25,0,52.54,2.11,59.62,3V149.5l-40.81,0c-32,0-38.19,15.24-38.19,37.62V236.5h76.74l-10,77.5H353.5V512H483.74A28.26,28.26,0,0,0,512,483.74V28.26A28.26,28.26,0,0,0,483.74,0Z"/></svg>
