<?xml version="1.0" encoding="utf-8"?>
<svg version="1.1" id="Layer_1" xmlns="http://www.w3.org/2000/svg" xmlns:xlink="http://www.w3.org/1999/xlink" x="0px" y="0px"
	 viewBox="0 0 96 96" style="enable-background:new 0 0 96 96;" xml:space="preserve">
<style type="text/css">
	.st0{fill:#FFC107;}
	.st1{fill:#388E3C;}
	.st2{fill:#FFFFFF;}
	.st3{fill:#A5D6A7;}
	.st4{fill:#2E7D32;}
	.st5{fill:#FFAB00;}
</style>
<g id="surface1">
	<path class="st0" d="M87,89.1H10.3c-5,0-9-4-9-9V17c0-5,4-9,9-9H87c5,0,9,4,9,9v63.1C96,85.1,92,89.1,87,89.1z"/>
	<path class="st1" d="M10.3,17H87v63.1H10.3V17z"/>
	<path class="st2" d="M57.7,75.6h18v4.5h-18V75.6z"/>
	<path class="st2" d="M55.4,39.6c0,3.7-3,6.8-6.8,6.8s-6.8-3-6.8-6.8c0-3.7,3-6.8,6.8-6.8S55.4,35.8,55.4,39.6z"/>
	<path class="st3" d="M35.1,46.3c0,2.5-2,4.5-4.5,4.5s-4.5-2-4.5-4.5s2-4.5,4.5-4.5S35.1,43.8,35.1,46.3z"/>
	<path class="st4" d="M10.3,17H87v4.5H10.3V17z"/>
	<path class="st5" d="M75.7,80.1h-18l9,9h18L75.7,80.1z"/>
	<path class="st3" d="M71.2,46.3c0,2.5-2,4.5-4.5,4.5s-4.5-2-4.5-4.5s2-4.5,4.5-4.5S71.2,43.8,71.2,46.3z"/>
	<path class="st3" d="M78,59.1c0-1-0.4-2-1.1-2.7c-1.6-1.7-4.9-3.4-10.2-3.4c-5.3,0-8.7,1.7-10.2,3.4c-0.7,0.7-1.1,1.7-1.1,2.7v3H78
		V59.1z"/>
	<path class="st3" d="M41.9,59.1c0-1-0.4-2-1.1-2.7c-1.6-1.7-4.9-3.4-10.2-3.4s-8.7,1.7-10.2,3.4c-0.7,0.7-1.1,1.7-1.1,2.7v3h22.5
		V59.1z"/>
	<path class="st2" d="M62.2,57c0-1.2-0.4-2.4-1.3-3.2c-1.9-2-5.9-5.2-12.3-5.2s-10.4,3.2-12.3,5.2c-0.8,0.9-1.3,2-1.3,3.2v5.1h27V57
		z"/>
</g>
</svg>
