<?xml version="1.0" encoding="UTF-8" standalone="no"?><!DOCTYPE svg PUBLIC "-//W3C//DTD SVG 1.1//EN" "http://www.w3.org/Graphics/SVG/1.1/DTD/svg11.dtd"><svg width="100%" height="100%" viewBox="0 0 313 313" version="1.1" xmlns="http://www.w3.org/2000/svg" xmlns:xlink="http://www.w3.org/1999/xlink" xml:space="preserve" xmlns:serif="http://www.serif.com/" style="fill-rule:evenodd;clip-rule:evenodd;stroke-linejoin:round;stroke-miterlimit:1.41421;"><path d="M220.446,53.036c0,29.291 -23.863,53.037 -53.295,53.037c-29.431,0 -53.294,-23.746 -53.294,-53.037c0,-29.29 23.863,-53.036 53.294,-53.036c29.432,0 53.295,23.746 53.295,53.036" style="fill-rule:nonzero;"/><path d="M220.446,259.464c0,29.29 -23.863,53.036 -53.295,53.036c-29.431,0 -53.294,-23.746 -53.294,-53.036c0,-29.291 23.863,-53.037 53.294,-53.037c29.432,0 53.295,23.746 53.295,53.037" style="fill-rule:nonzero;"/><path d="M312.5,156.25c0,29.291 -23.863,53.036 -53.295,53.036c-29.431,0 -53.294,-23.745 -53.294,-53.036c0,-29.29 23.863,-53.036 53.294,-53.036c29.432,0 53.295,23.746 53.295,53.036" style="fill-rule:nonzero;"/><path d="M122.739,136.113l-37.952,0l0,-40.832l-46.835,0l0,40.832l-37.952,0l0,46.718l37.952,0l0,34.884l46.835,0l0,-34.884l37.952,0l0,-46.718Z" style="fill-rule:nonzero;"/></svg>
