<?xml version="1.0" encoding="UTF-8" standalone="no"?><!DOCTYPE svg PUBLIC "-//W3C//DTD SVG 1.1//EN" "http://www.w3.org/Graphics/SVG/1.1/DTD/svg11.dtd"><svg width="100%" height="100%" viewBox="0 0 313 313" version="1.1" xmlns="http://www.w3.org/2000/svg" xmlns:xlink="http://www.w3.org/1999/xlink" xml:space="preserve" xmlns:serif="http://www.serif.com/" style="fill-rule:evenodd;clip-rule:evenodd;stroke-linejoin:round;stroke-miterlimit:1.41421;"><path d="M205.203,146.873l41.185,-101.25l41.582,99.293c-11.907,-2.53 -19.479,-4.177 -41.241,-4.177c-21.938,0 -28.895,3.57 -40.776,6.134m-133.192,16.908c-21.87,0 -33.488,3.459 -45.507,5.865l45.91,-100.877l42.725,100.327c-11.96,-2.477 -20.869,-5.315 -43.128,-5.315m239.739,-5.599l-0.341,-0.791c-0.051,-0.283 -0.167,-0.566 -0.365,-0.841l-61.943,-156.55l-180.09,22.696l-69.761,161.755c4.796,4.664 39.675,8.918 72.761,8.918c33.102,0 64.986,-4.597 69.766,-9.263l-55.027,-141.16l62.16,-8.25l0,253.469l-49.084,0l0,24.335l122.148,0l0,-24.335l-48.237,0l0,-257.969l59.55,-7.5l-53.337,135.486l0.804,0.346c2.799,5.2 30.922,9.285 65.225,9.285c34.618,0 62.94,-4.159 65.297,-9.428l0.474,-0.203Z" style="fill-rule:nonzero;"/><path d="M71.295,155.586c0,10.348 -8.396,18.738 -18.75,18.738c-10.354,0 -18.75,-8.39 -18.75,-18.738c0,-10.35 8.396,-18.74 18.75,-18.74c10.354,0 18.75,8.39 18.75,18.74" style="fill-rule:nonzero;"/><path d="M107.299,150.872c0,10.348 -8.397,18.738 -18.75,18.738c-10.354,0 -18.75,-8.39 -18.75,-18.738c0,-10.35 8.396,-18.74 18.75,-18.74c10.353,0 18.75,8.39 18.75,18.74" style="fill-rule:nonzero;"/><path d="M89.443,124.092c0,10.348 -8.397,18.738 -18.75,18.738c-10.354,0 -18.75,-8.39 -18.75,-18.738c0,-10.35 8.396,-18.74 18.75,-18.74c10.353,0 18.75,8.39 18.75,18.74" style="fill-rule:nonzero;"/><path d="M282.56,125.552c0,10.348 -8.396,18.738 -18.75,18.738c-10.354,0 -18.75,-8.39 -18.75,-18.738c0,-10.35 8.396,-18.739 18.75,-18.739c10.354,0 18.75,8.389 18.75,18.739" style="fill-rule:nonzero;"/><path d="M246.936,126.837c0,10.348 -8.397,18.738 -18.75,18.738c-10.354,0 -18.75,-8.39 -18.75,-18.738c0,-10.35 8.396,-18.74 18.75,-18.74c10.353,0 18.75,8.39 18.75,18.74" style="fill-rule:nonzero;"/></svg>
