<?xml version="1.0" encoding="UTF-8" standalone="no"?><!DOCTYPE svg PUBLIC "-//W3C//DTD SVG 1.1//EN" "http://www.w3.org/Graphics/SVG/1.1/DTD/svg11.dtd"><svg width="100%" height="100%" viewBox="0 0 313 313" version="1.1" xmlns="http://www.w3.org/2000/svg" xmlns:xlink="http://www.w3.org/1999/xlink" xml:space="preserve" xmlns:serif="http://www.serif.com/" style="fill-rule:evenodd;clip-rule:evenodd;stroke-linejoin:round;stroke-miterlimit:1.41421;"><path d="M156.249,0c-86.293,0 -156.249,54.657 -156.249,131.329c0,41.656 13.174,71.495 45.868,96.942l6.452,84.229l78.76,-50.641c9.363,1.556 15.296,0.802 25.169,0.802c86.295,0 156.251,-54.657 156.251,-131.332c0,-76.672 -69.956,-131.329 -156.251,-131.329Zm43.126,134.25c20.697,0 37.5,16.803 37.5,37.5c0,20.697 -16.803,37.5 -37.5,37.5c-20.697,0 -37.5,-16.803 -37.5,-37.5c0,-20.697 16.803,-37.5 37.5,-37.5Zm-102,-17c20.697,0 37.5,16.803 37.5,37.5c0,20.697 -16.803,37.5 -37.5,37.5c-20.697,0 -37.5,-16.803 -37.5,-37.5c0,-20.697 16.803,-37.5 37.5,-37.5Zm65.25,-74.875c20.697,0 37.5,16.803 37.5,37.5c0,20.697 -16.803,37.5 -37.5,37.5c-20.697,0 -37.5,-16.803 -37.5,-37.5c0,-20.697 16.803,-37.5 37.5,-37.5Z" style="fill-rule:nonzero;"/></svg>
