<svg xmlns="http://www.w3.org/2000/svg" width="60px" height="44px" viewBox="0 0 68 46.92"><defs><style>.a{fill:#fdb913;}.b{fill:#003082;}</style></defs><path class="a" d="M66.56,10.33C64.24,5.16,59.15,1.64,52.23.44,41-1.52,27.61,3.29,20.88,11.09l-.09.1.21.29.11-.09a37.74,37.74,0,0,1,17.7-7.57c9.83-1.5,18.07,1,22,6.6,3.87,5.48,2.77,16-2.3,22.15l-.09.12.25.3.1-.1C66.54,25.54,70.25,18.58,66.56,10.33Z" transform="translate(0 0)"/><path class="b" d="M57.62,33.43A48.07,48.07,0,0,1,37.87,42.5c-11.66,2.55-22.53,1-28.35-4a12,12,0,0,1-4.37-8.35c-.7-8.48,5.66-17.26,17-23.47l.11-.06-.13-.32-.11,0C8.69,11.74-.68,21.76,0,31.29a14.39,14.39,0,0,0,5,10c6.2,5.4,17.18,7.07,29.37,4.47a48,48,0,0,0,23.4-12l.11-.12-.25-.26Z" transform="translate(0 0)"/><polygon class="b" points="27.02 17.95 27.7 14.47 15.8 14.47 12.32 32.95 24.74 32.95 25.4 29.47 17.12 29.47 17.91 25.22 25.32 25.22 25.98 21.74 18.57 21.74 19.29 17.95 27.02 17.95"/><path class="b" d="M30.05,33h4.11L37,18H41.1a3.88,3.88,0,0,1,1.06-2,5.23,5.23,0,0,1,2.56-1.55H29L28.31,18h4.54Z" transform="translate(0 0)"/><path class="b" d="M42.14,20.17c0,2.66,2.22,4.12,4.36,5,1.87.82,2.72,1.48,2.72,2.47,0,1.45-1.51,2.08-3,2.08a10,10,0,0,1-5-1.34l-1.49,3.32a10.82,10.82,0,0,0,5.9,1.54c4.31,0,8-2.06,8-6.29,0-2.44-1.65-3.92-4.14-5-1.59-.74-3-1.39-3-2.55,0-.88,1-1.78,2.93-1.78a8.65,8.65,0,0,1,3.93.9l1.34-3.4a10.44,10.44,0,0,0-4.91-1C45.68,14.14,42.14,16.36,42.14,20.17Z" transform="translate(0 0)"/><path class="b" d="M65.58,33.71A2.54,2.54,0,0,0,62,37.3a2.54,2.54,0,1,0,3.59-3.59Zm-.25,3.35a2.11,2.11,0,0,1-1.55.65,2.09,2.09,0,0,1-1.54-.65,2.11,2.11,0,0,1-.64-1.55A2.14,2.14,0,0,1,62.24,34a2.16,2.16,0,0,1,3.09,0,2.2,2.2,0,0,1,0,3.1Z" transform="translate(0 0)"/><path class="b" d="M64.89,36.71a1.48,1.48,0,0,1,0-.21v-.2a.77.77,0,0,0-.15-.43.65.65,0,0,0-.48-.27,1.15,1.15,0,0,0,.41-.14.61.61,0,0,0,.27-.55.71.71,0,0,0-.43-.71,2.13,2.13,0,0,0-.77-.1h-1v2.79h.49v-1.1h.39a1,1,0,0,1,.54.1.66.66,0,0,1,.27.63v.37h.46l0,0A.44.44,0,0,1,64.89,36.71Zm-.73-1.32a1.37,1.37,0,0,1-.47.06h-.44v-1h.42a1.33,1.33,0,0,1,.6.1.44.44,0,0,1,.18.41A.45.45,0,0,1,64.16,35.39Z" transform="translate(0 0)"/></svg>