<svg id="Layer_1" data-name="Layer 1" xmlns="http://www.w3.org/2000/svg" viewBox="0 0 300 300"><defs><style>.cls-1{fill:#44b3e6;}.cls-2{fill:#42a047;}.cls-3{fill:#faa629;}.cls-4{fill:#e81f64;}.cls-5{fill:#fff;}.cls-6{fill:none;}</style></defs><title>Artboard 5</title><rect class="cls-1" width="150" height="150"/><rect class="cls-2" y="150" width="150" height="150"/><rect class="cls-3" x="150" y="150" width="150" height="150"/><rect class="cls-4" x="150" width="150" height="150"/><path class="cls-5" d="M111.11,111.11l19.44,19.44V78.7H78.7L98.15,98.15A73.21,73.21,0,0,0,133.8,221.43V202.5a53.76,53.76,0,0,1-22.69-13.61A55,55,0,0,1,111.11,111.11ZM166.2,78.57V97.5a54.9,54.9,0,0,1,22.69,91.39l-19.44-19.44V221.3H221.3l-19.45-19.45A73.21,73.21,0,0,0,166.2,78.57Z"/><path class="cls-6" d="M-5.56,150,150-5.56,305.56,150,150,305.56Z"/></svg>