<svg id="Layer_1" data-name="Layer 1" xmlns="http://www.w3.org/2000/svg" viewBox="0 0 300 300"><defs><style>.cls-1{fill:#faa629;}.cls-2{fill:#fff;}</style></defs><title>Artboard 2</title><rect class="cls-1" width="300" height="300"/><path class="cls-2" d="M189,87.25A32.4,32.4,0,1,1,156.63,55,32.33,32.33,0,0,1,189,87.25"/><path class="cls-2" d="M189,212.75a32.4,32.4,0,1,1-32.4-32.24A32.33,32.33,0,0,1,189,212.75"/><path class="cls-2" d="M245,150a32.41,32.41,0,1,1-32.4-32.25A32.33,32.33,0,0,1,245,150"/><polygon class="cls-2" points="129.63 137.76 106.55 137.76 106.55 112.93 78.07 112.93 78.07 137.76 55 137.76 55 166.16 78.07 166.16 78.07 187.37 106.55 187.37 106.55 166.16 129.63 166.16 129.63 137.76"/></svg>