<svg id="Layer_1" data-name="Layer 1" xmlns="http://www.w3.org/2000/svg" viewBox="0 0 300 300"><defs><style>.cls-1{fill:#42a047;}.cls-2,.cls-3{fill:#fff;}.cls-3{stroke:#231f20;stroke-linecap:round;stroke-linejoin:round;stroke-opacity:0;stroke-width:5.5px;}</style></defs><title>Artboard 3</title><rect class="cls-1" width="300" height="300"/><path class="cls-2" d="M245,151.17l-.21-.48a1.26,1.26,0,0,0-.22-.51L206.91,55,97.41,68.8,55,167.15c2.92,2.83,24.12,5.42,44.24,5.42s39.51-2.8,42.42-5.63L108.2,81.11l37.79-5V230.2H116.15V245h74.27V230.2H161.09V73.36L197.3,68.8l-32.44,82.37.49.21c1.71,3.17,18.81,5.65,39.66,5.65,21.05,0,38.27-2.53,39.7-5.73ZM99.24,154.58c-13.3,0-20.36,2.1-27.67,3.56L99.48,96.81l26,61c-7.27-1.51-12.69-3.23-26.22-3.23m80.52-10.28,25-61.56,25.28,60.37c-7.23-1.54-11.84-2.54-25.07-2.54s-17.57,2.17-24.79,3.73"/><path class="cls-3" d="M100.05,149.6a14.47,14.47,0,1,1-14.47-14.47,14.47,14.47,0,0,1,14.47,14.47"/><path class="cls-3" d="M127.87,151.29a14.48,14.48,0,1,1-14.47-14.47,14.46,14.46,0,0,1,14.47,14.47"/><path class="cls-3" d="M113.82,129.54a14.47,14.47,0,1,1-14.47-14.47,14.47,14.47,0,0,1,14.47,14.47"/><path class="cls-3" d="M231.24,134.07a14.48,14.48,0,1,1-14.48-14.46,14.47,14.47,0,0,1,14.48,14.46"/><path class="cls-3" d="M208.21,136.68a14.48,14.48,0,1,1-14.47-14.47,14.47,14.47,0,0,1,14.47,14.47"/></svg>