<svg id="Layer_1" data-name="Layer 1" xmlns="http://www.w3.org/2000/svg" viewBox="0 0 300 300"><defs><style>.cls-1{fill:#e81f64;}.cls-2{fill:#fff;}</style></defs><title>Artboard 1</title><rect class="cls-1" width="300" height="300"/><path class="cls-2" d="M153.88,80.76a22.8,22.8,0,1,1-22.8,22.8A22.82,22.82,0,0,1,153.88,80.76ZM114.2,126.29a22.8,22.8,0,1,1-22.8,22.8A22.8,22.8,0,0,1,114.2,126.29Zm62,10.33a22.8,22.8,0,1,1-22.8,22.8A22.82,22.82,0,0,1,176.22,136.62ZM150,55c-52.47,0-95,33.23-95,79.85,0,25.33,8,43.47,27.89,58.94L86.81,245l47.89-30.79c5.69.95,9.3.49,15.3.49,52.47,0,95-33.23,95-79.85S202.47,55,150,55Z"/></svg>